<svg width="183" height="31" viewBox="0 0 183 31" fill="none" xmlns="http://www.w3.org/2000/svg"><g clip-path="url(#clip0_0_434)" fill="#B5B5B5"><path d="M40.647.192v6.577H29.041V.192h-5.506v18.44h5.506v-6.978h11.606v6.979h5.506V.192h-5.506zm34.956 0V4.78h7.732v13.853h5.505V4.78h7.733V.192h-20.97zm82.383 0h-5.506v18.423h5.506V.192zm-141.553 0H0v18.423h5.506v-4.623h10.943c3.892 0 5.064-3.158 5.064-5.914v-1.99c0-2.756-1.172-5.913-5.064-5.913m-.594 7.257c0 1.1-.493 1.954-1.785 1.954H5.506V4.763h8.547c1.292 0 1.785.872 1.785 1.954v.715h.017zM56.486 0c-4.962 0-7.902 1.274-7.902 6.664v5.496c0 5.408 2.94 6.665 7.902 6.665h8.82c4.961 0 7.918-1.274 7.918-6.665V0H56.486zm11.08 10.415c0 2.67-.544 3.699-3.144 3.699h-7.035c-2.6 0-3.144-1.012-3.144-3.699V8.427c0-2.67.543-3.7 3.143-3.7h10.196v5.688h-.016zM106.275 0c-4.962 0-7.902 1.274-7.902 6.664v5.496c0 5.408 2.957 6.665 7.902 6.665h8.82c4.962 0 7.918-1.274 7.918-6.665V0h-16.738zm11.08 10.415c0 2.67-.544 3.699-3.144 3.699h-7.036c-2.599 0-3.16-1.012-3.16-3.699V8.427c0-2.67.543-3.7 3.16-3.7h10.197v5.688h-.017zM144.341.192v13.469L133.958.192h-8.53v18.44h5.505V5.165l10.383 13.469h8.53V.192h-5.505zm21.546 5.321c0 1.518.578 1.657 6.576 1.657 8.497-.017 10.519.506 10.537 5.758 0 3.332-.29 5.914-7.24 5.914h-8.156c-6.951 0-7.24-2.582-7.24-5.914v-.332h5.506c.035 1.954.799 2.111 2.38 2.111h6.746c1.172 0 2.344-.122 2.344-1.553 0-1.605-.645-1.71-7.731-1.71-8.276 0-9.227-1.029-9.227-5.547 0-3.332.288-5.897 7.238-5.897h7.392c6.951 0 7.24 2.565 7.24 5.897v.122h-5.506c0-1.343-.153-1.902-2.685-1.902h-6.1c-1.241 0-2.074.402-2.074 1.379M93.259 26.832h1.36c.373 0 .628-.07.798-.227.153-.157.238-.418.238-.785 0-.366-.085-.645-.238-.785-.153-.157-.425-.227-.799-.227h-1.36v2.042-.018zm2.209 3.612l-1.155-2.32h-1.07v2.32H91.56v-6.961h3.075c.935 0 1.615.191 2.022.558.408.366.63.924.63 1.657 0 1.134-.442 1.867-1.344 2.216l1.292 2.53h-1.784.017zm4.911-4.17c-.39 0-.646.087-.798.244-.153.157-.238.436-.256.803h1.972c0-.401-.068-.68-.187-.82-.102-.157-.357-.227-.748-.227m0 4.24c-.526 0-.968-.053-1.325-.175s-.612-.296-.799-.558a2.334 2.334 0 01-.39-.838 5.557 5.557 0 01-.103-1.169c0-.907.204-1.605.595-2.058.39-.454 1.088-.68 2.073-.68.476 0 .867.052 1.172.156.323.105.545.262.698.454.152.192.271.436.339.715.069.28.103.593.103.942v1.117h-3.4c.035.331.137.558.29.68.152.123.424.192.832.192a4.15 4.15 0 001.614-.314l.612 1.082c-.646.297-1.41.436-2.327.436m6.592-5.373l-1.121 3.506-1.122-3.506h-1.716l1.886 5.373h1.801l1.921-5.373h-1.649zm4.351 1.151c-.391 0-.646.087-.799.244-.153.157-.238.436-.256.803h1.972c0-.402-.067-.68-.186-.82-.103-.157-.357-.227-.749-.227m0 4.24c-.526 0-.968-.053-1.325-.175s-.612-.297-.799-.558a2.373 2.373 0 01-.39-.838 5.527 5.527 0 01-.103-1.169c0-.907.204-1.605.595-2.058.391-.454 1.088-.68 2.073-.68.476 0 .867.051 1.173.156.323.105.544.262.697.454.153.192.272.436.339.715.069.28.103.593.103.942v1.117h-3.4c.035.331.137.558.29.68.152.122.424.192.832.192.579 0 1.105-.105 1.615-.314l.611 1.082c-.646.296-1.41.436-2.327.436m5.251-1.151c.339 0 .611-.07.781-.21.17-.14.272-.384.272-.715v-.489h-.204c-.629 0-1.053.053-1.275.157-.22.105-.339.297-.339.593 0 .245.05.402.169.506.119.105.306.157.596.157zm-.375 1.168c-.747 0-1.257-.14-1.529-.436s-.408-.698-.408-1.239c0-.732.238-1.22.731-1.5.493-.279 1.291-.419 2.43-.419h.221c0-.226-.085-.4-.204-.488-.119-.087-.323-.14-.628-.14-.596 0-1.122.088-1.564.28l-.663-1.152c.629-.279 1.428-.419 2.413-.419.833 0 1.41.14 1.733.402.323.279.476.732.476 1.413v1.971c0 .175.017.297.068.332.051.052.17.07.357.07v1.22c-.119 0-.272.018-.493.018-.408 0-.697-.035-.866-.087a.645.645 0 01-.391-.349c-.306.332-.867.488-1.7.488m6.594-.034c-.085 0-.288.017-.595.017-.594 0-1.019-.105-1.291-.331-.271-.21-.39-.611-.39-1.204V23.22h1.648v5.513c0 .21.033.331.102.401.068.052.254.087.544.087v1.222h-.018zm2.312-4.083v-1.238h1.036l.256-1.187 1.308-.262v1.449h1.393v1.238h-1.393v2.286c0 .209.034.349.119.436.084.087.272.122.577.122h.714v1.221c-.476.035-.781.053-.918.053-.815 0-1.359-.123-1.665-.384-.306-.244-.442-.68-.442-1.291v-2.46h-.968l-.017.017zm4.894 4.083V23.22h1.631v2.268c.289-.314.833-.471 1.666-.471.356 0 .662.052.917.14.255.087.425.226.56.418.119.192.222.384.256.593.051.21.067.471.067.768v3.49h-1.648v-3.124c0-.349-.051-.593-.152-.732-.103-.14-.307-.21-.646-.21-.408 0-.68.087-.817.244-.135.157-.203.454-.203.89v2.931h-1.649l.018.018zm8.479-4.17c-.391 0-.646.087-.799.244-.153.157-.238.436-.254.803h1.971c0-.402-.068-.68-.187-.82-.102-.157-.357-.227-.748-.227m0 4.24c-.526 0-.968-.053-1.325-.175s-.612-.297-.799-.558a2.358 2.358 0 01-.391-.838 5.671 5.671 0 01-.102-1.169c0-.907.204-1.605.595-2.058.391-.454 1.087-.68 2.073-.68.476 0 .866.051 1.173.156.322.105.543.262.696.454.153.192.272.436.34.715.068.28.102.593.102.942v1.117h-3.398c.034.331.135.558.288.68.153.122.426.192.833.192a4.18 4.18 0 001.615-.314l.611 1.082c-.646.296-1.41.436-2.328.436m5.149-.052h1.649v-5.321h-1.649v5.32zm0-5.81h1.649v-1.29h-1.649v1.29zm2.736 5.81V25.21l1.308-.087.119.418c.306-.331.936-.506 1.87-.506.357 0 .662.053.917.14.256.087.425.227.561.419.119.192.221.383.255.593.051.21.068.47.068.767v3.49h-1.648V27.32c0-.349-.052-.593-.153-.733-.102-.14-.306-.21-.646-.21-.407 0-.68.088-.815.262-.137.175-.205.472-.205.873v2.93h-1.647.016zm9.465-5.321l-1.122 3.506-1.121-3.506h-1.717l1.887 5.373h1.801l1.92-5.373h-1.648zm2.226 5.321h1.648v-5.321h-1.648v5.32zm0-5.81h1.648v-1.29h-1.648v1.29zm4.725 5.88c-1.037 0-1.836-.122-2.431-.402l.629-1.099a4.591 4.591 0 001.784.35c.459 0 .68-.14.68-.42 0-.157-.068-.261-.221-.349-.136-.07-.476-.191-.986-.331a7.061 7.061 0 01-.951-.349 1.552 1.552 0 01-.527-.47c-.136-.21-.203-.472-.203-.786 0-1.082.764-1.64 2.31-1.64.748 0 1.377.087 1.92.28l-.628 1.168a3.815 3.815 0 00-1.342-.227c-.256 0-.426.035-.527.087-.102.053-.153.157-.153.28 0 .122.067.226.204.296.135.07.424.175.849.297.663.192 1.122.401 1.393.628.256.227.391.593.391 1.081 0 1.047-.747 1.57-2.209 1.57m2.991-.034h1.648v-5.321h-1.648v5.32zm0-5.81h1.648v-1.29h-1.648v1.29zm5.489 4.641c.391 0 .646-.105.782-.332.119-.227.187-.593.187-1.116 0-.524-.068-.925-.187-1.152-.119-.227-.391-.331-.782-.331-.441 0-.748.122-.883.349-.137.226-.222.61-.222 1.134 0 .523.069.89.204 1.116.137.227.442.332.901.332zm-2.736 1.116v-7.17h1.631v2.303c.289-.332.85-.506 1.665-.506.357 0 .664.052.918.157.256.105.46.227.612.384.136.157.255.366.34.61.085.262.136.506.17.75.016.245.034.524.034.855 0 .332 0 .611-.034.855a3.806 3.806 0 01-.17.733 1.64 1.64 0 01-.357.61c-.153.158-.357.28-.629.384a2.56 2.56 0 01-.934.157c-.544 0-.918-.034-1.139-.104a1.866 1.866 0 01-.646-.367l-.254.454-1.19-.105h-.017zm8.48.053c-.085 0-.289.017-.594.017-.595 0-1.021-.105-1.292-.331-.272-.21-.391-.611-.391-1.204V23.22h1.649v5.513c0 .21.034.331.101.401.068.052.256.087.544.087v1.222h-.017zm2.973-4.17c-.391 0-.646.087-.798.244-.153.157-.238.436-.256.803h1.972c0-.402-.069-.68-.187-.82-.102-.157-.357-.227-.748-.227m0 4.24c-.527 0-.969-.053-1.326-.175-.357-.122-.611-.297-.798-.558a2.358 2.358 0 01-.391-.838 5.602 5.602 0 01-.102-1.169c0-.907.204-1.605.595-2.058.391-.454 1.088-.68 2.073-.68.476 0 .867.051 1.172.156.323.105.545.262.698.454.152.192.271.436.339.715.068.28.102.593.102.942v1.117h-3.399c.034.331.137.558.289.68.153.122.425.192.833.192.577 0 1.104-.105 1.614-.314l.612 1.082c-.646.296-1.411.436-2.328.436"/></g><defs><clipPath id="clip0_0_434"><path fill="#fff" d="M0 0h183v31H0z"/></clipPath></defs></svg>