<svg width="183" height="33" viewBox="0 0 183 33" fill="none" xmlns="http://www.w3.org/2000/svg"><path d="M30.929 7.035h13.673l-.585 2.843h-4.972l-3.217 15.265h-3.73l3.218-15.265h-4.972l.585-2.843zM47.017 8.38h2.925l-1.39 6.36h.074c.804-.749 1.9-1.422 3.217-1.422 2.193 0 3.656 1.422 3.656 3.667 0 .898-.22 1.796-.366 2.544l-1.17 5.612h-2.925l1.097-5.463c.147-.823.366-1.571.366-2.394 0-.973-.658-1.646-1.609-1.646-2.047 0-2.778 1.945-3.144 3.666l-1.17 5.837h-2.925l3.364-16.762zm14.038 9.88c.585-1.572 1.39-2.694 3.144-2.694 1.243 0 1.828.673 1.828 1.945 0 .3 0 .524-.073.748h-4.899zm7.532 2.095c.146-.823.292-1.721.292-2.544 0-2.919-1.828-4.415-4.607-4.415-3.729 0-6.434 3.442-6.434 7.034 0 3.442 2.194 5.013 5.41 5.013 1.17 0 2.487-.3 3.584-.673l.438-2.32c-1.096.524-2.266.823-3.436.823-2.048 0-3.144-.823-3.144-2.918h7.897zm3.876-5.165c.073-.525.146-.974.292-1.572h2.779l-.366 2.17h.073c.512-1.272 1.975-2.47 3.364-2.47.365 0 .731 0 1.097.15l-.585 2.918c-.293-.15-.732-.15-1.097-.15-2.047 0-3.071 1.872-3.437 3.742l-1.023 5.163h-2.925l1.828-9.952zm9.212-.298c.073-.449.146-.898.22-1.272H84.6l-.293 1.572h.073c.805-1.198 2.048-1.796 3.437-1.796 1.316 0 2.706.823 2.852 2.17h.073c.731-1.497 2.413-2.17 3.948-2.17 1.682 0 3.145 1.421 3.145 3.142 0 1.048-.293 2.17-.512 3.143l-1.17 5.538h-2.925l1.17-5.613c.146-.673.365-1.795.365-2.469 0-.823-.658-1.422-1.389-1.422-2.047 0-2.559 2.395-2.925 3.966l-1.17 5.463h-2.924l1.17-5.612c.146-.674.365-1.796.365-2.47 0-.823-.658-1.422-1.389-1.422-1.974 0-2.56 2.47-2.925 3.966l-1.17 5.463h-2.925l2.194-10.177zm23.911 8.229c-1.682 0-2.267-1.197-2.267-2.694 0-2.095 1.17-4.714 3.51-4.714 1.755 0 2.267 1.272 2.267 2.769-.074 1.945-1.243 4.639-3.51 4.639zm1.316-9.803c-3.802 0-6.654 2.994-6.654 6.81 0 3.218 1.901 5.238 5.118 5.238 4.022 0 6.727-2.993 6.727-7.034 0-3.068-2.12-5.014-5.191-5.014zm8.117.301h2.12l.512-2.395 3.144-1.047-.731 3.442h2.632l-.439 2.17h-2.632l-1.097 5.013c-.073.3-.146.674-.146 1.123 0 .673.439 1.122 1.097 1.122.512 0 1.024-.15 1.389-.3l-.512 2.32c-.512.15-1.096.3-1.608.3-1.975 0-3.364-.823-3.364-2.993 0-.898.146-1.796.366-2.694l.804-3.891h-2.12l.585-2.17zm11.407 4.641c.585-1.572 1.39-2.694 3.145-2.694 1.243 0 1.828.673 1.828 1.945 0 .3 0 .524-.074.748h-4.899zm7.605 2.095c.146-.823.292-1.721.292-2.544 0-2.919-1.828-4.415-4.606-4.415-3.729 0-6.435 3.442-6.435 7.034 0 3.442 2.194 5.013 5.411 5.013 1.17 0 2.486-.3 3.583-.673l.366-2.395c-1.097.524-2.267.823-3.437.823-2.047 0-3.144-.823-3.144-2.918h7.97v.075zm5.337-11.975h2.925l-1.974 9.502h.073l4.095-4.19h3.802l-5.411 5.238 3.363 6.286h-3.29l-2.925-6.136h-.073l-1.243 6.136h-2.852l3.51-16.837zm11.405 6.884c.146-.673.219-1.272.292-1.646h2.852l-.219 1.122h.073c.804-.748 1.901-1.422 3.217-1.422 2.194 0 3.656 1.422 3.656 3.667 0 .898-.219 1.796-.365 2.544l-1.17 5.612h-2.925l1.097-5.462c.146-.823.292-1.571.292-2.395 0-.972-.658-1.646-1.609-1.646-2.047 0-2.778 1.946-3.144 3.667l-1.17 5.836h-2.924l2.047-9.877zm14.405-1.646h2.924l-2.413 11.523h-2.924l2.413-11.523zm1.096-5.014h2.925l-.585 2.844h-2.925l.585-2.844zm9.143 8.982l3.144-3.966h3.51l-4.826 5.537 2.705 6.061h-3.217l-1.755-4.414-3.364 4.415h-3.436l5.118-6.062-2.413-5.537h3.071l1.463 3.966zM22.886 6.136h.512l.877 1.496h.658l-.95-1.496c.511-.15.877-.375.877-1.048s-.439-.973-1.243-.973h-1.243v3.442h.585l-.073-1.421zm0-.524v-.973h.658c.365 0 .73.075.73.449 0 .524-.365.524-.803.524h-.585zm3.582.15c0-1.871-1.389-3.143-2.997-3.143-1.61 0-2.998 1.272-2.998 3.142 0 1.796 1.243 3.143 2.998 3.143 1.608 0 2.997-1.272 2.997-3.143zm-.658 0c0 1.496-1.023 2.544-2.34 2.544-1.462 0-2.34-1.123-2.34-2.545 0-1.496 1.024-2.544 2.34-2.544 1.317 0 2.34 1.048 2.34 2.544zm-5.336 17.062c-.366.224-.658.374-.95.598.292-.224.584-.449.95-.598 0 0 1.024-.45 2.194-1.347-1.243.823-2.194 1.347-2.194 1.347zm3.802-2.994c.658-.748 1.17-1.646 1.39-2.619-.22.973-.805 1.871-1.39 2.62zm-8.92 7.481a10.296 10.296 0 011.682-1.945c-.731.599-1.243 1.272-1.682 1.945zm5.118-17.883C13.454 5.463 13.454 0 13.454 0h-1.243s0 5.463-6.946 9.428c0 0-.22.075-.512.225h16.16l-.44-.225zM0 15.04h25.665c-.292-1.271-1.024-2.32-1.901-3.217H1.901C1.024 12.721.292 13.768 0 15.041zm14.258 14.068h-2.925c.804 1.796.804 3.068.804 3.068h1.243c.073 0 .073-1.272.878-3.068z" fill="#B5B5B5"/><path d="M3.071 21.402c1.17.898 2.12 1.347 2.12 1.347.366.224.659.374.951.599H19.45c.293-.225.658-.375.95-.6 0 0 1.024-.448 2.121-1.346H3.071zM0 17.211c.22.973.804 1.871 1.39 2.62h22.813c.658-.749 1.17-1.647 1.389-2.62H0zm8.629 8.081a18.808 18.808 0 011.682 1.946h5.045a10.296 10.296 0 011.682-1.946h-8.41z" fill="#B5B5B5"/></svg>