<svg width="185" height="56" viewBox="0 0 185 56" fill="none" xmlns="http://www.w3.org/2000/svg"><path d="M2 39.386l21.247-23.303 3.427 4.112m-13.708 7.54L23.247 38.7l10.281-10.967M45.18 39.386L34.214 27.734h-8.91" stroke="#B5B5B5" stroke-width="4.112"/><path fill="#B5B5B5" d="M57.079 4.201H185v48.59H57.079z"/><path d="M75.69 44.234h-8.617L78.266 11.06h10.675l11.193 33.174h-8.617l-7.792-24.816h-.26l-7.774 24.816zm-1.15-13.056h18.013v6.09H74.54v-6.09zm48.465-9.282a5.816 5.816 0 00-.809-1.798 5.18 5.18 0 00-1.313-1.344 5.622 5.622 0 00-1.781-.826 7.882 7.882 0 00-2.203-.292c-1.609 0-3.003.389-4.18 1.166-1.166.778-2.068 1.912-2.705 3.402-.637 1.48-.955 3.278-.955 5.394 0 2.128.307 3.942.923 5.443.615 1.501 1.506 2.646 2.673 3.434 1.166.788 2.581 1.183 4.244 1.183 1.468 0 2.71-.238 3.725-.713 1.026-.486 1.804-1.172 2.333-2.057.529-.886.794-1.928.794-3.127l1.49.178h-8.067v-5.847h14.303v4.39c0 2.97-.631 5.513-1.895 7.63-1.253 2.116-2.98 3.741-5.183 4.875-2.193 1.134-4.714 1.7-7.565 1.7-3.164 0-5.945-.685-8.342-2.056-2.398-1.372-4.266-3.327-5.605-5.864-1.339-2.549-2.009-5.573-2.009-9.072 0-2.72.405-5.134 1.215-7.24.81-2.117 1.939-3.91 3.386-5.378a14.618 14.618 0 015.054-3.337c1.922-.756 3.99-1.134 6.204-1.134 1.922 0 3.709.275 5.361.826 1.663.55 3.132 1.328 4.406 2.333a12.367 12.367 0 013.127 3.58 11.726 11.726 0 011.49 4.551h-8.116zm12.286-10.836h9.93l8.423 20.54h.389l8.423-20.54h9.93v33.174h-7.808V23.856h-.275l-7.97 20.168h-4.989l-7.97-20.281h-.275v20.491h-7.808V11.06z" fill="#fff"/></svg>