<svg width="686" height="162" viewBox="0 0 686 162" fill="none" xmlns="http://www.w3.org/2000/svg">
<mask id="mask0_54_117" style="mask-type:alpha" maskUnits="userSpaceOnUse" x="0" y="0" width="686" height="162">
<g clip-path="url(#clip0_54_117)">
<path fill-rule="evenodd" clip-rule="evenodd" d="M84.9218 1.30972C83.6904 2.02905 81.2574 3.4508 79.5152 4.46875C73.9463 7.72329 63.9648 14.5685 62.5068 16.1325L61.6417 17.0605L62.5068 16.7341C67.5583 14.8284 76.1873 13.2362 84.6026 12.6563C91.389 12.1884 103.519 13.7169 110.269 15.8899C114.044 17.1053 114.027 17.1029 113.317 16.3062C111.208 13.9382 89.4318 -0.00362619 87.8487 7.07512e-07C87.4703 0.000806686 86.1532 0.59038 84.9218 1.30972ZM78.2941 37.4776C72.628 38.6023 68.6833 40.0164 63.4722 42.7914C56.1425 46.6943 48.8301 53.7825 45.1467 60.5548C41.4287 67.3911 39.7989 73.7442 39.7989 81.4022C39.7989 93.7715 44.4525 104.259 53.8484 113.063C62.435 121.109 73.118 125.521 85.2146 126.018C91.4106 126.271 96.5478 125.747 101.502 124.354C113.224 121.06 122.668 114.176 129.062 104.264C131.408 100.628 132.398 98.443 134.219 92.8874C135.488 89.0155 135.54 88.5649 135.541 81.4022C135.542 74.4591 135.462 73.6978 134.372 70.32C132.616 64.8796 131.593 62.6233 129.071 58.6333C121.924 47.3234 109.908 39.5344 96.1499 37.2918C91.0676 36.4637 82.9785 36.5479 78.2941 37.4776ZM99.3744 46.2652C106.561 48.5445 110.987 51.1083 115.984 55.8877C120.885 60.5757 124.185 66.0044 126.174 72.6521C127.213 76.1242 127.241 86.6173 126.22 90.0665C123.68 98.6501 117.876 106.571 110.589 111.398C107.41 113.504 101.746 115.992 97.9743 116.94C93.2511 118.127 83.0939 118.227 78.2941 117.134C70.4999 115.359 61.8035 110.098 56.6728 104.052C53.5304 100.35 50.3449 94.0722 49.2692 89.462C48.1056 84.4774 48.2899 76.4003 49.6757 71.6156C52.2904 62.5882 59.6209 53.876 68.3459 49.4262C75.5813 45.736 80.167 44.7213 88.8912 44.8801C94.8493 44.9885 95.7052 45.1017 99.3744 46.2652ZM13.9811 62.147C9.65668 67.5196 6.01304 72.4671 2.1021 78.279L0 81.4022L2.23272 84.7268C7.40882 92.4356 17.9993 106.28 18.4202 105.888C18.4894 105.823 17.9682 103.96 17.2623 101.747C14.8903 94.3136 14.0979 89.2182 14.0996 81.4022C14.1014 73.4891 14.7329 69.3262 17.0966 61.6557C17.8821 59.1068 18.4717 56.9706 18.4072 56.9081C18.3423 56.8456 16.351 59.2031 13.9811 62.147ZM157.011 57.6198C157.754 58.9134 159.42 64.5093 160.313 68.708C161.443 74.0263 161.443 88.5613 160.312 93.8948C159.557 97.4605 157.946 103.167 157.194 104.942C156.605 106.335 157.773 105.261 160.581 101.83C166.818 94.2088 175.181 82.504 175.181 81.3965C175.181 80.2674 167.027 68.8809 160.328 60.6543C157.477 57.1531 155.931 55.739 157.011 57.6198ZM564.417 61.3841C558.204 63.0053 554.411 69.7244 554.368 79.1857C554.321 89.7755 557.955 96.1806 564.783 97.5395C570.109 98.5993 575.173 96.148 577.588 91.3403C580.44 85.6658 580.78 75.1865 578.325 68.679C576.158 62.9344 570.284 59.8531 564.417 61.3841ZM616.146 61.2048C611.342 62.3751 607.513 66.7604 606.158 72.6436C605.399 75.9413 605.407 83.3293 606.173 86.6991C607.809 93.8896 611.992 97.6721 618.309 97.6737C626.63 97.6757 631.023 91.161 631.046 78.7828C631.062 70.1576 628.501 64.3654 623.639 62.0305C621.818 61.1556 618.052 60.7405 616.146 61.2048ZM204.41 62.1595C204.301 62.6584 203.895 66.8744 203.509 71.529C203.123 76.1835 202.528 83.129 202.186 86.9634C201.845 90.7979 201.565 94.7423 201.565 95.7284V97.5218H205C206.889 97.5218 208.529 97.3807 208.643 97.2078C208.758 97.0353 209.072 92.8189 209.341 87.8383C209.61 82.8578 209.944 78.148 210.082 77.3723C210.304 76.1319 210.407 76.3503 210.931 79.1857C211.26 80.9589 212.212 85.2205 213.047 88.656C213.882 92.0915 214.663 95.3182 214.783 95.8264C214.988 96.7001 215.171 96.744 218.123 96.6324L221.246 96.5143L222.225 92.8874C222.763 90.8926 223.856 86.2683 224.654 82.6112C226.078 76.0827 226.109 76.0021 226.364 78.1783C226.507 79.3973 226.732 83.1149 226.864 86.4396C226.996 89.7642 227.219 93.618 227.361 95.0031L227.618 97.5218H231.244H234.87L234.859 95.4061C234.851 93.8566 232.858 62.0309 232.727 61.3535C232.696 61.1939 223.624 61.2366 223.624 61.3962C223.624 61.4756 222.76 65.5103 221.704 70.3627C220.647 75.2155 219.65 80.2738 219.488 81.6037C219.326 82.9335 219.063 84.2493 218.904 84.5274C218.672 84.9312 216.849 76.9572 213.836 62.361L213.608 61.2527H209.109C204.79 61.2527 204.602 61.289 204.41 62.1595ZM241.124 61.7565C241.01 62.0337 240.967 70.1487 241.029 79.7902L241.142 97.3203H250.225H259.308V93.8948V90.4694L254.659 90.355L250.009 90.2405V86.2244V82.2082H254.118H258.227V78.7828V75.3573H254.118H250.009V71.9319V68.5065H254.334H258.659V64.8796V61.2527H249.995C243.463 61.2527 241.28 61.3769 241.124 61.7565ZM267.31 61.5965L265.364 61.8572V79.5887V97.3203H269.689H274.014L274.133 90.3687C274.199 86.4343 274.426 83.4171 274.653 83.4171C275.616 83.4171 277.199 84.3855 277.61 85.2274C277.857 85.7307 278.48 88.4763 278.996 91.3282C279.512 94.1806 280.134 96.7412 280.379 97.018C280.681 97.3589 282.205 97.5218 285.097 97.5218C287.447 97.5218 289.369 97.4702 289.369 97.4073C289.369 97.344 288.689 94.4199 287.857 90.9091C286.379 84.6668 285.388 82.3577 283.722 81.2704C282.95 80.7671 283.034 80.6099 285.172 78.5506C288.369 75.471 289.169 72.5344 287.996 68.1926C287.367 65.867 284.212 62.7583 281.748 62.0378C279.868 61.4873 270.306 61.1951 267.31 61.5965ZM303.54 61.8629C296.576 64.2461 292.412 70.9547 292.412 79.7902C292.412 87.9016 295.595 93.8783 301.239 96.366C303.496 97.3614 304.379 97.5213 307.616 97.5213C312.237 97.5217 313.692 97.0934 313.408 95.8155C313.295 95.3134 313.08 93.8445 312.929 92.5517L312.654 90.2011L310.852 90.2885C307.387 90.4569 306.69 90.2825 304.938 88.8075C302.508 86.7619 301.771 84.2283 301.981 78.6328C302.115 75.0636 302.32 74.0178 303.217 72.3559C304.904 69.2255 307.548 67.9379 311.081 68.5271L312.681 68.7935L313.129 66.8458C314.204 62.1752 314.202 61.7935 313.096 61.5179C311.303 61.0706 305.211 61.2906 303.54 61.8629ZM318.004 75.0551C318.139 88.3207 318.183 88.9461 319.129 91.1412C320.455 94.2152 321.483 95.338 324.123 96.5933C327.196 98.0553 331.897 98.1331 334.893 96.7714C340.57 94.1915 341.816 89.5865 341.611 71.9319L341.489 61.4542H337.164H332.839L332.622 74.9729C332.428 87.1404 332.328 88.6032 331.622 89.6058C330.617 91.0328 328.957 90.9172 327.691 89.3326C326.818 88.2389 326.778 87.6783 326.653 74.7243L326.524 61.2527H322.194H317.864L318.004 75.0551ZM350.464 61.526L348.626 61.7021V79.6266V97.5508L352.843 97.4355L357.06 97.3203L357.179 90.3687C357.305 82.942 357.36 82.7836 359.458 83.8294C360.743 84.4701 361.06 85.3325 362.057 90.9099C362.569 93.7707 363.169 96.4288 363.391 96.8165C363.735 97.4166 364.445 97.5218 368.159 97.5218H372.523L372.269 96.4135C372.13 95.8042 371.522 93.078 370.919 90.3558C369.718 84.9312 368.74 82.7429 366.919 81.4086C365.766 80.5636 365.754 80.5176 366.582 80.0989C368.233 79.2647 370.505 76.6989 371.025 75.0813C371.685 73.0317 371.701 69.4528 371.06 67.6599C370.388 65.7811 367.835 63.3378 365.495 62.3331C363.881 61.6404 362.588 61.4848 357.925 61.4236C354.833 61.3829 351.475 61.4292 350.464 61.526ZM373.28 61.4905C373.28 61.8842 377.445 73.2131 379.414 78.1783L381.253 82.8126L381.484 90.0665L381.715 97.3203H386.04H390.365L390.581 89.6635C390.722 84.6636 390.984 81.7044 391.333 81.1354C391.628 80.6563 392.924 77.392 394.213 73.8816C395.502 70.3712 397.062 66.2708 397.678 64.7696C398.295 63.2685 398.799 61.8633 398.799 61.6465C398.799 61.4155 396.951 61.2527 394.328 61.2527H389.857L388.698 66.5923C388.06 69.5289 387.346 72.9156 387.11 74.1178C386.875 75.3199 386.603 76.3769 386.507 76.4668C386.41 76.5566 386.104 75.5729 385.827 74.281C385.167 71.2122 383.904 66.3852 383.012 63.5296L382.302 61.2527H377.791C375.31 61.2527 373.28 61.3599 373.28 61.4905ZM418.447 61.7919C418.324 62.0889 418.282 63.7662 418.352 65.5196L418.48 68.708L421.724 68.9095L424.968 69.111L425.184 83.2156L425.4 97.3203L429.612 97.4355L433.823 97.5508L433.937 83.3309L434.051 69.111L437.403 68.9933L440.755 68.8757V65.0642V61.2527H429.712C420.888 61.2527 418.624 61.3611 418.447 61.7919ZM445.278 61.7565C445.164 62.0337 445.122 70.1487 445.184 79.7902L445.297 97.3203H454.38H463.463L463.588 93.7941L463.713 90.2679H458.938H454.163V86.2381V82.2082H458.264C463.002 82.2082 462.966 82.242 462.73 77.9599L462.598 75.5588L458.381 75.4436L454.163 75.3283V71.9174V68.5065H458.489H462.814V64.8796V61.2527H454.15C447.618 61.2527 445.435 61.3769 445.278 61.7565ZM478.601 61.8911C476.003 62.7543 472.741 65.2375 470.953 67.7118C468.98 70.4429 467.955 73.7216 467.68 78.1783C467.127 87.1275 470.261 93.6543 476.414 96.366C478.671 97.3614 479.554 97.5213 482.791 97.5213C487.412 97.5217 488.867 97.0934 488.583 95.8155C488.471 95.3134 488.255 93.8445 488.104 92.5517L487.829 90.2011L486.027 90.2885C482.676 90.4513 481.88 90.2712 480.325 88.9993C477.818 86.9489 477.384 85.7835 477.173 80.5301C476.931 74.5377 477.676 71.9561 480.232 69.9174C482.034 68.4803 483.552 68.1362 486.261 68.5501L487.865 68.7951L488.3 66.7366C489.358 61.723 489.358 61.7891 488.262 61.5159C486.457 61.0653 480.376 61.3015 478.601 61.8911ZM493.524 79.3872V97.5508L497.741 97.4355L501.958 97.3203L502.076 90.1672L502.194 83.0141H505.418H508.642L508.761 90.1672L508.879 97.3203H513.204H517.529V79.3872V61.4542L513.096 61.3394L508.662 61.2245V68.2909V75.3573H505.429H502.195L502.077 68.4058L501.958 61.4542L497.741 61.339L493.524 61.2237V79.3872ZM524.77 79.2865L524.882 97.3203L528.736 97.4375L532.59 97.5552L532.345 86.3553C532.102 75.2651 532.107 75.1796 532.846 77.5738C533.668 80.2323 536.626 87.5312 539.298 93.4919L541.014 97.3203H544.843H548.671L548.784 79.2865L548.897 61.2527H545.151H541.406L541.63 72.4357L541.855 83.6186L540.861 80.9992C540.314 79.5585 538.768 75.7503 537.425 72.5364C536.083 69.3226 534.484 65.4692 533.872 63.9729L532.759 61.2527H528.708H524.657L524.77 79.2865ZM585.324 79.2865L585.437 97.3203L594.412 97.4291L603.387 97.5383V94.1044V90.6709H599.313C597.073 90.6709 594.932 90.5609 594.555 90.4263C593.949 90.2095 593.871 88.5351 593.871 75.7172V61.2527H589.541H585.211L585.324 79.2865ZM645.558 62.0547C640.416 63.9657 636.665 68.1644 635.15 73.7087C634.128 77.4452 634.451 85.1891 635.757 88.2953C637.808 93.1723 640.249 95.4814 644.857 96.9032C646.715 97.4766 648.108 97.581 651.778 97.423C654.304 97.3142 656.907 97.0241 657.561 96.779L658.751 96.3329V86.4496V76.5663H653.344H647.937V79.9917V83.4171H649.451H650.965V87.044V90.6709H649.394C648.154 90.6709 647.517 90.3687 646.371 89.2363C644.252 87.1428 643.481 84.261 643.682 79.1898C643.825 75.5782 644.006 74.7766 645.135 72.7246C646.141 70.8967 646.851 70.1677 648.37 69.4064C650.095 68.5416 650.688 68.4562 653.594 68.6524L656.871 68.8737L657.434 65.6397C657.864 63.177 657.878 62.2937 657.494 61.9358C657.189 61.6517 655.157 61.4236 652.356 61.3583C648.55 61.2701 647.334 61.3946 645.558 62.0547ZM660.481 61.5727C660.481 61.968 662.784 68.3026 666.152 77.1708L668.448 83.2156L668.682 90.2679L668.915 97.3203L673.132 97.4355L677.349 97.5508L677.353 90.9877L677.357 84.4246L680.199 76.9693C683.244 68.9825 686 61.5743 686 61.3752C686 61.3079 683.976 61.2527 681.502 61.2527H677.004L676.289 64.2445C675.896 65.8899 675.194 69.2771 674.728 71.7708C674.262 74.2649 673.817 76.3644 673.74 76.4366C673.663 76.5087 672.868 73.7111 671.975 70.22C671.081 66.7285 670.21 63.3281 670.038 62.6632L669.727 61.4542L665.104 61.3398C662.561 61.2769 660.481 61.3817 660.481 61.5727ZM83.6956 63.6513C78.0061 64.791 72.9286 68.5682 70.2006 73.6914C68.5882 76.719 68.5622 76.8412 68.5717 81.4022C68.5808 85.7355 68.6677 86.2066 69.9152 88.656C77.9144 104.362 101.252 102.584 106.576 85.8625C106.96 84.6587 107.274 83.1596 107.274 82.5314V81.3885L105.108 82.4109C102.165 83.8008 99.7165 84.0571 96.8506 83.2757C91.1676 81.7266 87.77 76.2621 89.2437 71.0417C89.9413 68.5714 91.2973 66.5976 93.1308 65.3842L94.4505 64.5109L93.2126 64.0724C91.5317 63.4768 85.8267 63.2246 83.6956 63.6513ZM277.728 68.2172C279.397 69.4104 279.92 72.2926 278.942 74.9064C278.446 76.2322 276.677 77.3723 275.117 77.3723C274.273 77.3723 274.231 77.1426 274.231 72.5364V67.7006L275.636 67.7134C276.41 67.7203 277.351 67.9472 277.728 68.2172ZM361.143 68.4058C363.399 70.1088 363.041 75.1998 360.566 76.6062C359.827 77.0257 358.785 77.3699 358.25 77.3707C357.294 77.3723 357.277 77.2832 357.277 72.5364V67.7006H358.742C359.549 67.7006 360.629 68.0177 361.143 68.4058ZM568.116 68.3538C569.346 68.7935 570.084 70.8012 570.584 75.0664C571.164 80.0224 570.58 86.6338 569.354 88.9707C567.717 92.0911 564.985 90.7423 564.002 86.3279C563.282 83.0996 563.659 72.4087 564.562 70.4618C565.451 68.5432 566.652 67.8307 568.116 68.3538ZM620.626 70.2188C621.472 71.8098 621.682 72.9656 621.869 77.0696C622.24 85.2161 620.949 90.3171 618.446 90.5923C615.718 90.8926 614.393 86.259 614.729 77.5947C614.872 73.9328 615.155 71.8453 615.662 70.723C617.127 67.4825 619.064 67.2859 620.626 70.2188ZM504.023 116.049C501.792 116.541 500.518 117.55 499.968 119.261C499.079 122.025 500.414 123.809 504.546 125.378C505.495 125.738 506.643 126.498 507.1 127.067C507.874 128.034 507.883 128.169 507.229 129.098C506.308 130.408 504.581 130.718 502.091 130.02C500.326 129.525 500.034 129.528 499.822 130.042C499.212 131.524 499.581 132.074 501.523 132.581C506.189 133.798 510.825 131.469 510.825 127.908C510.825 125.91 509.624 124.578 506.505 123.114C502.773 121.363 502.148 120.48 503.652 119.079C504.833 117.978 505.539 117.874 507.771 118.47C509.493 118.93 509.375 118.982 509.745 117.608C509.969 116.775 509.858 116.493 509.24 116.334C507.454 115.874 505.338 115.759 504.023 116.049ZM558.09 116.039C552.551 117.299 549.938 123.762 552.83 129.046C555.646 134.189 564.253 134.07 567.112 128.849C568.497 126.32 568.66 123.072 567.523 120.677C566.451 118.42 565.564 117.402 564.027 116.67C562.526 115.955 559.754 115.66 558.09 116.039ZM271.734 124.22L271.852 132.38L273.257 132.506L274.663 132.633L274.682 126.26L274.701 119.888L275.604 121.5C276.101 122.386 277.858 125.253 279.509 127.869L282.511 132.627L284.101 132.504L285.693 132.38V124.321V116.261L284.255 116.132L282.818 116.004L282.958 122.077C283.035 125.417 283.063 128.15 283.021 128.149C282.979 128.149 282.321 127.106 281.559 125.832C280.797 124.557 279.102 121.837 277.792 119.787L275.41 116.059H273.513H271.618L271.734 124.22ZM305.373 124.522V132.985H306.887H308.401V124.522V116.059H306.887H305.373V124.522ZM333.271 116.532C329.52 117.828 327.182 121.311 327.52 125.1C328.03 130.829 332.982 133.85 339.667 132.509L342.354 131.97L342.477 127.843L342.601 123.716H339.342C336.153 123.716 336.083 123.738 336.083 124.724C336.083 125.63 336.256 125.731 337.813 125.731H339.543V127.947V130.164H337.083C332.855 130.164 330.89 128.258 330.894 124.16C330.897 120.235 333.468 118.294 338.326 118.55C341.148 118.698 341.317 118.658 341.556 117.767C341.695 117.25 341.673 116.701 341.507 116.546C340.993 116.068 334.645 116.057 333.271 116.532ZM362.034 124.321V132.582H363.548H365.062V128.955V125.328H368.722H372.381L372.506 128.854L372.631 132.38L374.253 132.505L375.875 132.631V124.345V116.059H374.145H372.415V119.283V122.507H368.739H365.062V119.283V116.059H363.548H362.034V124.321ZM393.898 116.328C393.739 116.476 393.609 117.02 393.609 117.537C393.609 118.418 393.774 118.477 396.204 118.477H398.799V125.529V132.582H400.303H401.807L401.925 125.63L402.043 118.679L404.531 118.558C406.967 118.439 407.018 118.413 407.018 117.248V116.059H400.602C397.073 116.059 394.056 116.18 393.898 116.328ZM444.215 116.528C444.215 116.812 445.432 120.545 446.919 124.824L449.622 132.603L451.531 132.492L453.439 132.38L454.817 128.552C455.575 126.446 456.906 122.847 457.775 120.554C458.643 118.26 459.354 116.311 459.354 116.222C459.354 116.132 458.587 116.059 457.65 116.059H455.946L454.804 119.585C454.176 121.525 453.239 124.424 452.723 126.03C452.207 127.634 451.682 128.949 451.556 128.951C451.43 128.953 450.457 126.099 449.393 122.608L447.459 116.261L445.837 116.136C444.736 116.051 444.215 116.177 444.215 116.528ZM477.088 124.546V133.034L478.71 132.908L480.332 132.783L480.448 124.421L480.566 116.059H478.826H477.088V124.546ZM529.523 124.421L529.64 132.783L531.262 132.908L532.884 133.034V124.546V116.059H531.145H529.406L529.523 124.421ZM586.95 124.321V132.582H588.486H590.021L589.892 126.537C589.82 123.211 589.904 120.491 590.078 120.492C590.251 120.492 590.809 121.263 591.318 122.205C591.827 123.147 593.498 125.867 595.031 128.25L597.819 132.582H599.521H601.224V124.321V116.059H599.71H598.196L598.167 122.205C598.144 127.018 598.035 128.132 597.664 127.343C597.404 126.789 595.736 124.023 593.956 121.197L590.722 116.059H588.836H586.95V124.321ZM562.842 119.165C564.097 120.206 564.891 122.204 564.891 124.321C564.891 129.162 561.105 131.928 557.55 129.684C554.045 127.472 554.403 119.919 558.082 118.47C559.413 117.946 561.79 118.293 562.842 119.165ZM62.0154 145.389C63.0331 146.923 86.3794 162 87.7376 162C88.1956 162 99.9518 155.058 102.083 153.529C102.916 152.932 105.899 150.859 108.711 148.923C111.525 146.987 113.734 145.317 113.622 145.213C113.51 145.109 111.792 145.484 109.805 146.047C101.411 148.427 98.2308 148.839 88.0261 148.872C80.3785 148.897 77.7885 148.759 74.8339 148.171C71.0964 147.428 63.7455 145.663 62.4363 145.195C61.967 145.027 61.8203 145.095 62.0154 145.389Z" fill="black"/>
</g>
</mask>
<g mask="url(#mask0_54_117)">
<rect x="-123" y="-86" width="946" height="295" fill="white"/>
</g>
<defs>
<clipPath id="clip0_54_117">
<rect width="686" height="162" fill="white"/>
</clipPath>
</defs>
</svg>
