<svg width="10" height="10" viewBox="0 0 10 10" fill="none" xmlns="http://www.w3.org/2000/svg">
<g clip-path="url(#clip0_0_1350)">
<path d="M3.30799 8.97717C3.19082 8.85996 3.125 8.70102 3.125 8.53529C3.125 8.36956 3.19082 8.21062 3.30799 8.09342L6.40174 4.99967L3.30799 1.90593C3.19414 1.78805 3.13115 1.63017 3.13257 1.4663C3.13399 1.30243 3.19972 1.14567 3.31561 1.02979C3.43149 0.913911 3.58824 0.848181 3.75212 0.846757C3.91599 0.845333 4.07387 0.908329 4.19174 1.02218L7.72737 4.5578C7.84454 4.675 7.91036 4.83394 7.91036 4.99967C7.91036 5.1654 7.84454 5.32434 7.72737 5.44155L4.19174 8.97717C4.07454 9.09433 3.91559 9.16016 3.74987 9.16016C3.58414 9.16016 3.4252 9.09433 3.30799 8.97717Z" fill="white" fill-opacity="0.51"/>
</g>
<defs>
<clipPath id="clip0_0_1350">
<rect width="10" height="10" fill="white" transform="translate(0 10) rotate(-90)"/>
</clipPath>
</defs>
</svg>
