<svg width="70" height="70" viewBox="0 0 70 70" fill="none" xmlns="http://www.w3.org/2000/svg">
<path d="M35 6.5625C19.3197 6.5625 6.5625 19.3197 6.5625 35C6.5625 50.6803 19.3197 63.4375 35 63.4375C50.6803 63.4375 63.4375 50.6803 63.4375 35C63.4375 19.3197 50.6803 6.5625 35 6.5625ZM45.2225 36.2715L29.575 45.7242C29.3507 45.8586 29.0947 45.9309 28.8333 45.9337C28.5718 45.9365 28.3144 45.8696 28.0873 45.7401C27.8602 45.6105 27.6716 45.4229 27.541 45.1964C27.4103 44.97 27.3422 44.7128 27.3438 44.4514V25.5486C27.3422 25.2872 27.4103 25.03 27.541 24.8036C27.6716 24.5771 27.8602 24.3895 28.0873 24.2599C28.3144 24.1304 28.5718 24.0635 28.8333 24.0663C29.0947 24.0691 29.3507 24.1414 29.575 24.2758L45.2225 33.7285C45.4406 33.8614 45.6208 34.0481 45.7459 34.2708C45.871 34.4935 45.9367 34.7446 45.9367 35C45.9367 35.2554 45.871 35.5065 45.7459 35.7292C45.6208 35.9519 45.4406 36.1386 45.2225 36.2715Z" fill="white"/>
</svg>
