<svg width="70" height="70" viewBox="0 0 70 70" fill="none" xmlns="http://www.w3.org/2000/svg">
<rect x="0.5" y="0.5" width="69" height="69" rx="34.5" stroke="white"/>
<g clip-path="url(#clip0_76_849)">
<path d="M34.8339 21C34.5017 21 34.2324 21.2693 34.2324 21.6015V31.2248C34.2324 31.557 34.5017 31.8263 34.8339 31.8263C35.1661 31.8263 35.4354 31.557 35.4354 31.2248V21.6015C35.4354 21.2693 35.1661 21 34.8339 21Z" fill="white"/>
<path d="M34.8339 37.8408C34.5017 37.8408 34.2324 38.1101 34.2324 38.4423V48.0655C34.2324 48.3977 34.5017 48.667 34.8339 48.667C35.1661 48.667 35.4354 48.3977 35.4354 48.0655V38.4422C35.4354 38.1101 35.1661 37.8408 34.8339 37.8408Z" fill="white"/>
<path d="M31.2247 34.232H21.6015C21.2693 34.232 21 34.5013 21 34.8335C21 35.1656 21.2693 35.4349 21.6015 35.4349H31.2248C31.557 35.4349 31.8263 35.1656 31.8263 34.8335C31.8262 34.5013 31.5569 34.232 31.2247 34.232Z" fill="white"/>
<path d="M48.0656 34.232H38.4423C38.1101 34.232 37.8408 34.5013 37.8408 34.8335C37.8408 35.1657 38.1101 35.435 38.4423 35.435H48.0656C48.3978 35.435 48.6671 35.1657 48.6671 34.8335C48.6671 34.5013 48.3978 34.232 48.0656 34.232Z" fill="white"/>
<path d="M34.8339 35.4349C35.1661 35.4349 35.4354 35.1657 35.4354 34.8335C35.4354 34.5013 35.1661 34.232 34.8339 34.232C34.5017 34.232 34.2324 34.5013 34.2324 34.8335C34.2324 35.1657 34.5017 35.4349 34.8339 35.4349Z" fill="white"/>
<path d="M34.8339 31.8262C34.5017 31.8262 34.2324 31.5569 34.2324 31.2247V21.6015C34.2325 21.2693 34.5017 21 34.8339 21C35.1661 21 35.4354 21.2693 35.4354 21.6015V31.2248C35.4354 31.5569 35.1661 31.8262 34.8339 31.8262Z" fill="white"/>
<path d="M34.8339 48.667C34.5017 48.667 34.2324 48.3977 34.2324 48.0655V38.4422C34.2324 38.11 34.5017 37.8407 34.8339 37.8407C35.1661 37.8407 35.4354 38.11 35.4354 38.4422V48.0655C35.4354 48.3977 35.1661 48.667 34.8339 48.667Z" fill="white"/>
<path d="M31.2247 35.4349H21.6015C21.2693 35.4349 21 35.1656 21 34.8335C21 34.5013 21.2693 34.232 21.6015 34.232H31.2248C31.557 34.232 31.8263 34.5013 31.8263 34.8335C31.8262 35.1656 31.5569 35.4349 31.2247 35.4349Z" fill="white"/>
<path d="M48.0656 35.4349H38.4423C38.1101 35.4349 37.8408 35.1656 37.8408 34.8335C37.8408 34.5013 38.1101 34.232 38.4423 34.232H48.0656C48.3978 34.232 48.6671 34.5013 48.6671 34.8335C48.6671 35.1656 48.3978 35.4349 48.0656 35.4349Z" fill="white"/>
<path d="M34.8339 35.4349C35.1661 35.4349 35.4354 35.1657 35.4354 34.8335C35.4354 34.5013 35.1661 34.232 34.8339 34.232C34.5017 34.232 34.2324 34.5013 34.2324 34.8335C34.2324 35.1657 34.5017 35.4349 34.8339 35.4349Z" fill="white"/>
</g>
<defs>
<clipPath id="clip0_76_849">
<rect width="27.667" height="27.667" fill="white" transform="translate(21 21)"/>
</clipPath>
</defs>
</svg>
