<svg width="41" height="41" viewBox="0 0 41 41" fill="none" xmlns="http://www.w3.org/2000/svg">
<rect x="0.5" y="0.5" width="40" height="40" rx="20" stroke="#181717"/>
<g clip-path="url(#clip0_0_1206)">
<path d="M20.3333 10C20.0852 10 19.884 10.2012 19.884 10.4493V17.6378C19.884 17.886 20.0852 18.0871 20.3333 18.0871C20.5815 18.0871 20.7826 17.886 20.7826 17.6378V10.4493C20.7826 10.2012 20.5815 10 20.3333 10Z" fill="#181717"/>
<path d="M20.3333 22.5798C20.0852 22.5798 19.884 22.781 19.884 23.0291V30.2176C19.884 30.4657 20.0852 30.6669 20.3333 30.6669C20.5815 30.6669 20.7826 30.4657 20.7826 30.2176V23.0291C20.7826 22.781 20.5815 22.5798 20.3333 22.5798Z" fill="#181717"/>
<path d="M17.6378 19.884H10.4493C10.2012 19.884 10 20.0852 10 20.3333C10 20.5814 10.2012 20.7826 10.4493 20.7826H17.6378C17.886 20.7826 18.0871 20.5814 18.0871 20.3333C18.0871 20.0852 17.8859 19.884 17.6378 19.884Z" fill="#181717"/>
<path d="M30.2177 19.884H23.0291C22.781 19.884 22.5798 20.0852 22.5798 20.3333C22.5798 20.5815 22.781 20.7826 23.0291 20.7826H30.2177C30.4658 20.7826 30.667 20.5815 30.667 20.3333C30.667 20.0852 30.4658 19.884 30.2177 19.884Z" fill="#181717"/>
<path d="M20.3333 20.7826C20.5815 20.7826 20.7826 20.5815 20.7826 20.3333C20.7826 20.0852 20.5815 19.884 20.3333 19.884C20.0852 19.884 19.884 20.0852 19.884 20.3333C19.884 20.5815 20.0852 20.7826 20.3333 20.7826Z" fill="#181717"/>
<path d="M20.3333 18.0871C20.0852 18.0871 19.884 17.8859 19.884 17.6378V10.4493C19.8841 10.2012 20.0852 10 20.3333 10C20.5815 10 20.7826 10.2012 20.7826 10.4493V17.6378C20.7826 17.8859 20.5815 18.0871 20.3333 18.0871Z" fill="#181717"/>
<path d="M20.3333 30.667C20.0852 30.667 19.884 30.4658 19.884 30.2177V23.0291C19.884 22.781 20.0852 22.5798 20.3333 22.5798C20.5815 22.5798 20.7826 22.781 20.7826 23.0291V30.2177C20.7826 30.4658 20.5815 30.667 20.3333 30.667Z" fill="#181717"/>
<path d="M17.6378 20.7826H10.4493C10.2012 20.7826 10 20.5815 10 20.3333C10 20.0852 10.2012 19.884 10.4493 19.884H17.6378C17.886 19.884 18.0871 20.0852 18.0871 20.3333C18.0871 20.5815 17.8859 20.7826 17.6378 20.7826Z" fill="#181717"/>
<path d="M30.2177 20.7826H23.0291C22.781 20.7826 22.5798 20.5815 22.5798 20.3333C22.5798 20.0852 22.781 19.884 23.0291 19.884H30.2177C30.4658 19.884 30.667 20.0852 30.667 20.3333C30.667 20.5815 30.4658 20.7826 30.2177 20.7826Z" fill="#181717"/>
<path d="M20.3333 20.7826C20.5815 20.7826 20.7826 20.5815 20.7826 20.3333C20.7826 20.0852 20.5815 19.884 20.3333 19.884C20.0852 19.884 19.884 20.0852 19.884 20.3333C19.884 20.5815 20.0852 20.7826 20.3333 20.7826Z" fill="#181717"/>
</g>
<defs>
<clipPath id="clip0_0_1206">
<rect width="20.667" height="20.667" fill="white" transform="translate(10 10)"/>
</clipPath>
</defs>
</svg>
