<svg width="14" height="14" viewBox="0 0 14 14" fill="none" xmlns="http://www.w3.org/2000/svg">
<path d="M13.707 3.60812C13.6279 3.31032 13.472 3.03851 13.255 2.81985C13.0379 2.60119 12.7672 2.44335 12.47 2.36212C11.379 2.06812 7 2.06812 7 2.06812C7 2.06812 2.622 2.06812 1.53 2.36212C1.23279 2.44357 0.962098 2.60146 0.74489 2.82007C0.527683 3.03868 0.371536 3.31038 0.292 3.60812C0 4.70712 0 7.00012 0 7.00012C0 7.00012 0 9.29312 0.292 10.3921C0.371321 10.6898 0.527412 10.9615 0.744666 11.18C0.96192 11.3985 1.23272 11.5561 1.53 11.6371C2.622 11.9321 7 11.9321 7 11.9321C7 11.9321 11.378 11.9321 12.469 11.6371C12.7663 11.5564 13.0372 11.3989 13.2543 11.1803C13.4714 10.9618 13.6272 10.69 13.706 10.3921C14 9.29312 14 7.00012 14 7.00012C14 7.00012 14 4.70712 13.707 3.60812ZM5.568 9.08212V4.91812L9.228 7.00012L5.568 9.08212Z" fill="white"/>
</svg>
