<svg width="512" height="512" viewBox="0 0 512 512" fill="none" xmlns="http://www.w3.org/2000/svg">
<g clip-path="url(#clip0_20_3)">
<path d="M131.539 80.7617C135.212 84.0273 138.141 87.6889 141.063 91.625C141.615 92.3579 142.167 93.0908 142.736 93.846C148.171 101.114 153.352 108.559 158.524 116.016C161.834 120.781 165.216 125.492 168.625 130.188C175.331 139.432 181.912 148.762 188.48 158.105C194.863 167.181 201.296 176.219 207.812 185.201C208.331 185.916 208.849 186.631 209.383 187.367C209.841 187.997 210.298 188.628 210.77 189.277C211.878 190.829 212.942 192.413 214 194C214.34 193.299 214.681 192.598 215.031 191.875C220.282 181.597 226.487 174.876 237 170C237.988 169.538 237.988 169.538 238.996 169.066C248.4 165.112 258.239 165.425 268 168C271.325 169.429 274.471 171.005 277.637 172.758C279.85 174.155 279.85 174.155 282 174C283.082 172.202 284.089 170.359 285.063 168.5C291.164 157.797 300.091 151.225 311.875 147.688C323.604 145.238 335.633 147.027 345.813 153.313C350.148 156.266 354.124 159.469 358 163C358.549 162.238 358.549 162.238 359.109 161.461C364.876 154.129 372.697 149.404 382 148C391.769 147.314 400.762 149.579 408.867 155.109C415.508 160.996 419.624 168.133 423.938 175.813C424.93 177.556 425.922 179.299 426.915 181.042C427.939 182.841 428.96 184.643 429.98 186.444C433.121 191.981 436.313 197.489 439.5 203C440.746 205.16 441.992 207.32 443.238 209.48C445.776 213.88 448.315 218.278 450.856 222.676C453.989 228.101 457.118 233.528 460.245 238.956C461.383 240.929 462.521 242.901 463.661 244.872C467.144 250.894 470.591 256.935 474 263C474.447 263.789 474.894 264.578 475.355 265.391C489.79 291.025 495.749 317.495 499.813 346.349C501.912 361.19 504.522 375.682 509.813 389.75C511.859 395.227 512.924 399.18 512 405C507.666 410.551 501.361 413.483 495.313 416.875C494.15 417.535 492.988 418.196 491.826 418.857C489.416 420.23 487.003 421.598 484.588 422.964C479.039 426.108 473.521 429.307 468 432.5C465.834 433.75 463.667 435 461.5 436.25C460.428 436.869 459.355 437.488 458.25 438.125C448.5 443.75 448.5 443.75 445.25 445.625C443.084 446.874 440.919 448.124 438.754 449.373C433.314 452.512 427.873 455.65 422.43 458.785C411.978 464.808 401.537 470.847 391.125 476.938C381.205 482.737 371.25 488.474 361.255 494.144C355.751 497.27 350.267 500.421 344.84 503.68C343.416 504.524 343.416 504.524 341.964 505.386C340.216 506.426 338.476 507.479 336.745 508.547C331.536 511.623 328.065 512.78 322 512C319.934 510.969 319.934 510.969 318.438 509.5C317.585 508.678 317.585 508.678 316.715 507.84C314.329 505.281 312.018 502.669 309.746 500.008C304.648 494.145 298.884 489.052 293 484C291.98 483.105 290.961 482.209 289.941 481.313C281.947 474.319 273.682 467.811 265.109 461.543C262.963 459.973 260.826 458.393 258.688 456.813C247.737 448.765 236.482 441.265 225 434C224.145 433.458 223.29 432.917 222.409 432.359C208.646 423.671 194.621 415.487 180.41 407.554C159.272 395.75 143.367 382.93 135.578 359.203C132.109 345.983 133.049 332.796 139.688 320.875C144.349 313.555 150.413 306.548 159 304C162.787 304 164.342 304.485 167.313 306.813C169.069 309.09 169.832 310.148 170 313C168.779 318.281 166.692 320.578 162.563 324C156.68 328.887 153.528 333.741 152.762 341.375C152.418 353.54 156.632 362.55 164 372C164.598 372.887 165.196 373.774 165.813 374.688C172.494 381.75 181.749 386.261 190.188 390.875C192.42 392.112 194.652 393.35 196.883 394.59C197.945 395.18 199.008 395.77 200.103 396.378C206.162 399.77 212.093 403.352 218 407C218.875 407.537 219.749 408.074 220.65 408.627C255.306 429.939 288.331 453.219 317.902 481.243C321.496 484.642 325.167 487.873 329 491C330.388 490.178 330.388 490.178 331.805 489.34C344.021 482.124 356.31 475.036 368.605 467.956C374.072 464.807 379.536 461.653 385 458.5C387.167 457.25 389.333 456 391.5 454.75C392.573 454.131 393.645 453.513 394.75 452.875C404.5 447.25 404.5 447.25 407.751 445.375C409.916 444.126 412.081 442.876 414.246 441.627C419.686 438.488 425.128 435.35 430.57 432.215C450.772 420.575 470.917 408.842 491 397C490.762 396.066 490.762 396.066 490.52 395.113C489.998 393.047 489.485 390.979 488.977 388.91C488.319 386.241 487.619 383.587 486.898 380.934C483.69 368.719 481.792 356.42 480 343.938C474.574 306.438 460.998 277.67 441.857 245.167C438.731 239.836 435.647 234.48 432.563 229.125C431.944 228.052 431.325 226.979 430.688 225.873C428.138 221.448 425.589 217.022 423.04 212.596C419.85 207.057 416.658 201.52 413.457 195.988C411.292 192.245 409.142 188.494 407.012 184.73C406.133 183.195 405.254 181.66 404.375 180.125C403.998 179.448 403.62 178.77 403.231 178.072C400.375 173.122 397.362 170.102 392.188 167.688C386.709 166.506 382.674 167.147 377.688 169.688C373.985 172.873 372.253 175.502 371.754 180.434C371.633 185.234 372.198 188.555 374 193C373.866 196.811 373.502 199.216 371.438 202.438C368.65 204.224 366.386 204.518 363.098 204.629C354.963 202.19 351.046 190.573 347.348 183.814C342.481 175.178 337.941 169.237 328.188 166.469C320.961 164.92 314.264 166.386 308.012 170.219C303.238 173.898 300.46 178.15 299 184C298.197 191.527 298.694 197.25 302 204C302.386 207.941 302.249 210.686 300 214C296.832 216.112 294.868 216.332 291.133 216.559C286.607 215.373 284.307 211.5 281.973 207.695C281.331 206.508 280.694 205.318 280.063 204.125C276.068 196.917 272.283 190.132 264.469 186.66C257.781 184.872 249.905 184.717 243.5 187.563C237.619 191.151 233.585 196.366 231.469 202.902C230.005 209.453 231.052 214.598 233.316 220.797C234.447 224.441 234.451 227.197 234 231C232.563 233.5 232.563 233.5 230 235C226.863 235.615 224.096 235.841 221 235C216.692 231.375 213.662 226.917 210.5 222.313C209.436 220.783 208.371 219.255 207.305 217.727C206.759 216.943 206.214 216.16 205.651 215.353C203.018 211.601 200.32 207.895 197.625 204.188C192.414 197.003 187.31 189.749 182.235 182.468C177.806 176.125 173.298 169.843 168.756 163.58C162.594 155.077 156.56 146.486 150.521 137.896C144.765 129.712 138.98 121.551 133.125 113.438C132.602 112.712 132.079 111.986 131.539 111.239C130.53 109.844 129.518 108.451 128.503 107.061C127.475 105.651 126.456 104.236 125.445 102.814C122.757 99.1005 120.393 96.0733 116.438 93.625C115.714 93.1635 114.991 92.702 114.246 92.2266C109.047 89.3874 105.877 88.5059 100 90C94.4701 92.5889 90.9611 95.5518 88.0001 101C87.0772 103.769 86.7754 105.682 86.6876 108.563C86.6502 109.348 86.6128 110.133 86.5743 110.941C87.7395 119.312 92.2614 126.508 96.7501 133.5C97.9161 135.35 99.0814 137.2 100.246 139.051C100.858 140.018 101.47 140.986 102.101 141.983C105.38 147.192 108.593 152.442 111.813 157.688C113.173 159.9 114.534 162.112 115.895 164.324C116.573 165.428 117.252 166.532 117.952 167.669C121.3 173.114 124.65 178.557 128 184C129.333 186.167 130.667 188.333 132 190.5C132.66 191.573 133.32 192.645 134 193.75C146.667 214.333 159.333 234.917 172 255.5C172.661 256.573 173.321 257.647 174.002 258.753C175.33 260.91 176.657 263.068 177.985 265.226C181.755 271.354 185.528 277.481 189.306 283.605C191.679 287.452 194.042 291.306 196.402 295.16C198.568 298.692 200.759 302.202 203.004 305.684C203.65 306.704 203.65 306.704 204.309 307.745C205.392 309.455 206.492 311.154 207.594 312.852C209.427 316.956 209.377 319.533 209 324C206.858 327.342 205.397 327.892 201.563 328.938C197.458 329.01 196.261 328.383 193 326C191.218 323.685 191.218 323.685 189.574 320.934C188.951 319.904 188.328 318.875 187.686 317.814C187.026 316.7 186.367 315.586 185.688 314.438C184.982 313.266 184.276 312.094 183.568 310.924C182.1 308.492 180.637 306.058 179.177 303.621C175.835 298.05 172.414 292.527 169 287C167.666 284.834 166.333 282.667 165 280.5C164.34 279.428 163.68 278.355 163 277.25C145 248 127 218.75 109 189.5C108.009 187.89 108.009 187.89 106.998 186.247C105.671 184.09 104.343 181.932 103.015 179.774C99.245 173.646 95.4718 167.519 91.6944 161.396C89.3175 157.541 86.9487 153.681 84.5821 149.82C82.4599 146.36 80.3192 142.915 78.1368 139.492C69.9629 126.568 65.2408 113.355 68.6954 97.8867C72.2855 86.9805 79.3119 79.1866 89.3673 73.711C104.225 66.7573 119.107 70.6016 131.539 80.7617Z" fill="white"/>
<path d="M64 136C67.6361 138.5 68.7756 140.009 69.75 144.313C68.9866 148.066 68.5539 148.857 66.1094 151.547C65.4755 152.245 64.8416 152.942 64.1885 153.661C63.4663 154.433 62.7441 155.205 62 156C61.1979 156.857 60.3958 157.715 59.5693 158.598C56.9065 161.405 54.208 164.174 51.5 166.938C51.0432 167.417 50.5864 167.897 50.1157 168.392C48.7691 169.806 47.4004 171.198 46.0313 172.59C45.2327 173.413 44.4341 174.237 43.6113 175.086C40.3575 177.471 37.9972 177.826 34 178C30.4261 176.412 29.1891 175.284 27 172C26.2856 166.642 27.8797 164.26 31 160C32.6533 158.181 34.3556 156.406 36.0977 154.672C36.5732 154.197 37.0487 153.722 37.5387 153.232C38.5355 152.238 39.5348 151.247 40.5364 150.258C42.0672 148.745 43.5898 147.225 45.1113 145.703C56.3076 134.563 56.3076 134.563 64 136Z" fill="white"/>
<path d="M172 26.9999C175.748 29.0821 176.795 30.2946 178 34.4374C178 40.2702 174.903 43.3243 170.9 47.3524C170.375 47.8703 169.85 48.3882 169.309 48.9218C168.763 49.4673 168.217 50.0127 167.654 50.5747C166.506 51.72 165.355 52.8628 164.202 54.0034C162.434 55.753 160.675 57.5105 158.916 59.2695C157.797 60.3832 156.678 61.4965 155.559 62.6093C155.031 63.1353 154.504 63.6613 153.961 64.2032C150.762 67.3613 149.217 68.8622 144.687 69.3749C141 68.9999 141 68.9999 138.062 66.9999C135.983 63.9752 134.997 61.9176 135.293 58.2031C136.713 53.7769 140.073 50.8402 143.329 47.6489C145.328 45.6764 147.284 43.6648 149.242 41.6523C150.764 40.1002 152.288 38.5494 153.812 36.9999C154.554 36.2453 155.295 35.4906 156.058 34.7131C156.767 34.0034 157.476 33.2937 158.207 32.5624C158.841 31.9244 159.475 31.2863 160.128 30.6288C163.901 27.3456 166.998 26.3875 172 26.9999Z" fill="white"/>
<path d="M16.0547 92.7969C16.8338 92.7912 17.613 92.7855 18.4158 92.7797C20.0615 92.7702 21.7072 92.7637 23.353 92.7598C25.8594 92.7501 28.3649 92.7191 30.8711 92.6876C32.4739 92.681 34.0768 92.6758 35.6796 92.6719C36.4236 92.6596 37.1675 92.6472 37.934 92.6345C42.6999 92.6547 45.9653 93.4503 50 96.0001C51.8207 98.9292 52.0155 100.618 51.875 104.063C50.8027 107.662 50.0482 108.788 47 111C43.7838 111.602 40.6079 111.56 37.3437 111.531C35.9348 111.537 35.9348 111.537 34.4974 111.543C32.5137 111.546 30.53 111.538 28.5464 111.522C25.5105 111.5 22.4771 111.521 19.4414 111.547C17.513 111.544 15.5846 111.539 13.6562 111.531C12.2951 111.543 12.2951 111.543 10.9066 111.556C4.62728 111.462 4.62728 111.462 1.42965 109.106C-0.992305 105.539 -0.761333 102.142 -3.68357e-05 98.0001C4.03108 92.2413 9.5652 92.8338 16.0547 92.7969Z" fill="white"/>
<path d="M102.438 -0.4375C103.199 -0.456836 103.961 -0.476172 104.746 -0.496094C108.036 0.227929 108.994 1.27264 111 4C111.606 7.21519 111.56 10.3924 111.531 13.6562C111.535 14.5955 111.539 15.5348 111.543 16.5026C111.546 18.4863 111.538 20.47 111.522 22.4536C111.5 25.4894 111.521 28.5229 111.547 31.5586C111.544 33.487 111.539 35.4154 111.531 37.3438C111.539 38.2511 111.548 39.1585 111.556 40.0934C111.463 46.365 111.463 46.365 109.147 49.5449C106.309 51.4685 104.433 51.9314 101 52C97.6144 50.828 95.598 50.0898 93.8448 46.8945C92.761 43.1809 92.7136 39.6457 92.7344 35.8125C92.7316 34.6423 92.7316 34.6423 92.7286 33.4485C92.7273 31.8045 92.7309 30.1605 92.7393 28.5166C92.75 26.0082 92.7394 23.5005 92.7266 20.9922C92.7279 19.3906 92.7305 17.7891 92.7344 16.1875C92.7304 15.4415 92.7263 14.6956 92.7222 13.927C92.7665 8.97433 93.3341 5.20678 96.3477 1.21484C98.4774 -0.350976 99.8106 -0.43307 102.438 -0.4375Z" fill="white"/>
<path d="M39 27C45.6592 31.1917 51.1385 38.0735 56.6326 43.6682C59.9455 47.0285 63.3082 50.0532 67 53C69.4622 56.6933 69.792 59.715 69 64C67 67 67 67 64 69C57.448 69.8777 57.448 69.8777 54.2166 67.919C52.4064 66.3478 50.7679 64.6945 49.1289 62.9454C48.5211 62.3286 47.9133 61.7119 47.2871 61.0764C45.3593 59.1107 43.4615 57.1186 41.5625 55.125C40.2603 53.7912 38.9563 52.4592 37.6504 51.1289C27.1526 40.373 27.1526 40.373 26.6875 36.1875C27.0716 32.2693 28.2926 30.7871 31 28C34.0178 26.4911 35.6232 26.4998 39 27Z" fill="white"/>
</g>
<defs>
<clipPath id="clip0_20_3">
<rect width="512" height="512" fill="white"/>
</clipPath>
</defs>
</svg>
