<svg width="70" height="70" viewBox="0 0 70 70" fill="none" xmlns="http://www.w3.org/2000/svg"><rect x=".5" y=".5" width="69" height="69" rx="34.5" stroke="#fff"/><g clip-path="url(#clip0_76_849)" fill="#fff"><path d="M34.834 21a.601.601 0 00-.602.602v9.623a.601.601 0 101.203 0v-9.623a.601.601 0 00-.601-.602zm0 16.84a.601.601 0 00-.602.602v9.623a.601.601 0 101.203 0v-9.623a.601.601 0 00-.601-.601zm-3.609-3.608h-9.623a.601.601 0 100 1.203h9.623a.601.601 0 100-1.203zm16.841 0h-9.624a.601.601 0 100 1.203h9.624a.601.601 0 100-1.203zm-13.232 1.203a.601.601 0 100-1.203.601.601 0 000 1.203z"/><path d="M34.834 31.826a.601.601 0 01-.602-.601v-9.623a.602.602 0 011.203 0v9.623a.6.6 0 01-.601.601zm0 16.841a.601.601 0 01-.602-.602v-9.623a.601.601 0 111.203 0v9.623a.601.601 0 01-.601.602zm-3.609-13.232h-9.623a.601.601 0 110-1.203h9.623a.601.601 0 110 1.203zm16.841 0h-9.624a.601.601 0 110-1.203h9.624a.601.601 0 110 1.203zm-13.232 0a.601.601 0 100-1.203.601.601 0 000 1.203z"/></g><defs><clipPath id="clip0_76_849"><path fill="#fff" transform="translate(21 21)" d="M0 0h27.667v27.667H0z"/></clipPath></defs></svg>