<svg width="183" height="31" viewBox="0 0 183 31" fill="none" xmlns="http://www.w3.org/2000/svg">
<g clip-path="url(#clip0_0_434)">
<path d="M40.6474 0.191956V6.7692H29.041V0.191956H23.5352V18.6327H29.041V11.6541H40.6474V18.6327H46.1531V0.191956H40.6474Z" fill="#B5B5B5"/>
<path d="M75.6025 0.191956V4.78033H83.3345V18.6327H88.8402V4.78033H96.5725V0.191956H75.6025Z" fill="#B5B5B5"/>
<path d="M157.986 0.191956H152.48V18.6152H157.986V0.191956Z" fill="#B5B5B5"/>
<path d="M16.4325 0.191976H0V18.6152H5.5058V13.992H16.4494C20.3409 13.992 21.5134 10.8342 21.5134 8.07769V6.08881C21.5134 3.3323 20.3409 0.17453 16.4494 0.17453M15.8547 7.43217C15.8547 8.53129 15.3618 9.38616 14.0704 9.38616H5.5058V4.7629H14.0534C15.3449 4.7629 15.8376 5.63521 15.8376 6.71688V7.43217H15.8547Z" fill="#B5B5B5"/>
<path d="M56.4858 0C51.5239 0 48.584 1.27357 48.584 6.66447V12.1601C48.584 17.5684 51.5239 18.8245 56.4858 18.8245H65.3053C70.2674 18.8245 73.2242 17.551 73.2242 12.1601V0H56.4858ZM67.5655 10.4154C67.5655 13.0847 67.0217 14.114 64.4217 14.114H57.3865C54.7865 14.114 54.2427 13.1021 54.2427 10.4154V8.42654C54.2427 5.75726 54.7865 4.72794 57.3865 4.72794H67.5824V10.4154H67.5655Z" fill="#B5B5B5"/>
<path d="M106.275 0C101.313 0 98.373 1.27357 98.373 6.66447V12.1601C98.373 17.5684 101.33 18.8245 106.275 18.8245H115.095C120.057 18.8245 123.013 17.551 123.013 12.1601V0H106.275ZM117.355 10.4154C117.355 13.0847 116.811 14.114 114.211 14.114H107.175C104.576 14.114 104.015 13.1021 104.015 10.4154V8.42654C104.015 5.75726 104.558 4.72794 107.175 4.72794H117.372V10.4154H117.355Z" fill="#B5B5B5"/>
<path d="M144.341 0.191956V13.6605L133.958 0.191956H125.428V18.6327H130.933V5.16414L141.316 18.6327H149.846V0.191956H144.341Z" fill="#B5B5B5"/>
<path d="M165.887 5.51302C165.887 7.03085 166.465 7.17041 172.463 7.17041C180.96 7.15297 182.982 7.67635 183 12.9277C183 16.2599 182.71 18.842 175.76 18.842H167.604C160.653 18.842 160.364 16.2599 160.364 12.9277V12.5962H165.87C165.905 14.5502 166.669 14.7072 168.25 14.7072H174.996C176.168 14.7072 177.34 14.585 177.34 13.1545C177.34 11.5494 176.695 11.4447 169.609 11.4447C161.333 11.4447 160.382 10.4154 160.382 5.89684C160.382 2.5646 160.67 0 167.62 0H175.012C181.963 0 182.252 2.5646 182.252 5.89684V6.01896H176.746C176.746 4.6756 176.593 4.11732 174.061 4.11732H167.961C166.72 4.11732 165.887 4.51858 165.887 5.49558" fill="#B5B5B5"/>
<path d="M93.2587 26.8322H94.6184C94.9917 26.8322 95.247 26.7625 95.4172 26.6054C95.57 26.4484 95.6551 26.1867 95.6551 25.8204C95.6551 25.454 95.57 25.1748 95.4172 25.0353C95.2644 24.8782 94.9917 24.8085 94.6184 24.8085H93.2587V26.8497V26.8322ZM95.4675 30.4436L94.3128 28.1233H93.2423V30.4436H91.5596V23.4826H94.6349C95.57 23.4826 96.2499 23.6744 96.657 24.0409C97.0651 24.4072 97.2866 24.9655 97.2866 25.6982C97.2866 26.8322 96.8446 27.565 95.9433 27.9139L97.2353 30.4436H95.4511H95.4675Z" fill="#B5B5B5"/>
<path d="M100.379 26.2741C99.9887 26.2741 99.7334 26.3614 99.5806 26.5183C99.4278 26.6754 99.3427 26.9545 99.3253 27.3209H101.297C101.297 26.9197 101.229 26.6405 101.11 26.501C101.008 26.3439 100.753 26.2741 100.362 26.2741M100.362 30.5136C99.8359 30.5136 99.3939 30.4613 99.0371 30.3391C98.6802 30.217 98.425 30.0425 98.2383 29.7809C98.0507 29.5366 97.9318 29.2574 97.8476 28.9434C97.779 28.6293 97.7451 28.2456 97.7451 27.7745C97.7451 26.8673 97.9492 26.1695 98.3399 25.7158C98.7306 25.2623 99.4278 25.0354 100.413 25.0354C100.889 25.0354 101.28 25.0877 101.585 25.1925C101.908 25.2971 102.13 25.4542 102.283 25.646C102.435 25.8379 102.554 26.0822 102.622 26.3614C102.691 26.6405 102.725 26.9545 102.725 27.3035C102.725 27.6524 102.725 28.0187 102.725 28.4201H99.3253C99.3601 28.7515 99.4617 28.9783 99.6145 29.1005C99.7673 29.2226 100.039 29.2924 100.447 29.2924C101.025 29.2924 101.552 29.1876 102.061 28.9783L102.673 30.06C102.027 30.3565 101.263 30.4961 100.346 30.4961" fill="#B5B5B5"/>
<path d="M106.938 25.1226L105.817 28.6293L104.695 25.1226H102.979L104.865 30.496H106.666L108.587 25.1226H106.938Z" fill="#B5B5B5"/>
<path d="M111.289 26.2739C110.898 26.2739 110.643 26.3611 110.49 26.5181C110.337 26.6751 110.252 26.9543 110.234 27.3207H112.206C112.206 26.9194 112.139 26.6403 112.02 26.5007C111.917 26.3437 111.663 26.2739 111.271 26.2739M111.271 30.5133C110.745 30.5133 110.303 30.461 109.946 30.3388C109.589 30.2167 109.334 30.0423 109.147 29.7806C108.961 29.5363 108.842 29.2572 108.757 28.9432C108.688 28.6291 108.654 28.2453 108.654 27.7743C108.654 26.867 108.858 26.1693 109.249 25.7156C109.64 25.262 110.337 25.0352 111.322 25.0352C111.798 25.0352 112.189 25.0875 112.495 25.1922C112.818 25.2969 113.039 25.4539 113.192 25.6458C113.345 25.8377 113.464 26.082 113.531 26.3611C113.6 26.6403 113.634 26.9543 113.634 27.3032C113.634 27.6522 113.634 28.0185 113.634 28.4198H110.234C110.269 28.7513 110.371 28.978 110.524 29.1002C110.676 29.2223 110.948 29.2921 111.356 29.2921C111.935 29.2921 112.461 29.1874 112.971 28.978L113.582 30.0598C112.936 30.3563 112.172 30.4959 111.255 30.4959" fill="#B5B5B5"/>
<path d="M116.506 29.3445C116.845 29.3445 117.117 29.2747 117.287 29.1351C117.457 28.9955 117.559 28.7513 117.559 28.4199V27.9313H117.355C116.726 27.9313 116.302 27.9837 116.08 28.0883C115.86 28.193 115.741 28.3849 115.741 28.6815C115.741 28.9257 115.791 29.0828 115.91 29.1874C116.029 29.2921 116.216 29.3445 116.506 29.3445ZM116.131 30.5134C115.384 30.5134 114.874 30.3738 114.602 30.0772C114.33 29.7807 114.194 29.3794 114.194 28.8385C114.194 28.1058 114.432 27.6173 114.925 27.3381C115.418 27.059 116.216 26.9195 117.355 26.9195H117.576C117.576 26.6926 117.491 26.5181 117.372 26.431C117.253 26.3437 117.049 26.2914 116.744 26.2914C116.148 26.2914 115.622 26.3786 115.18 26.5705L114.517 25.4191C115.146 25.14 115.945 25.0004 116.93 25.0004C117.763 25.0004 118.34 25.14 118.663 25.4016C118.986 25.6808 119.139 26.1343 119.139 26.8148V28.7862C119.139 28.9607 119.156 29.0828 119.207 29.1176C119.258 29.17 119.377 29.1874 119.564 29.1874V30.4086C119.445 30.4086 119.292 30.4261 119.071 30.4261C118.663 30.4261 118.374 30.3913 118.205 30.3389C118.035 30.2865 117.898 30.1644 117.814 29.99C117.508 30.3215 116.947 30.4784 116.114 30.4784" fill="#B5B5B5"/>
<path d="M122.708 30.4436C122.623 30.4436 122.42 30.4611 122.113 30.4611C121.519 30.4611 121.094 30.3564 120.822 30.1296C120.551 29.9203 120.432 29.519 120.432 28.9258V23.2209H122.08V28.7339C122.08 28.9433 122.113 29.0654 122.182 29.1351C122.25 29.1875 122.436 29.2224 122.726 29.2224V30.4436H122.708Z" fill="#B5B5B5"/>
<path d="M125.02 26.3613V25.1226H126.056L126.312 23.9362L127.62 23.6745V25.1226H129.013V26.3613H127.62V28.6467C127.62 28.856 127.654 28.9956 127.739 29.0829C127.823 29.1701 128.011 29.205 128.316 29.205H129.03V30.4262C128.554 30.4611 128.249 30.4785 128.112 30.4785C127.297 30.4785 126.753 30.3564 126.447 30.0947C126.141 29.8505 126.005 29.4143 126.005 28.8037V26.3438H125.037L125.02 26.3613Z" fill="#B5B5B5"/>
<path d="M129.914 30.4436V23.2209H131.545V25.4889C131.834 25.1748 132.378 25.0179 133.211 25.0179C133.567 25.0179 133.873 25.0702 134.128 25.1574C134.383 25.2446 134.553 25.3842 134.688 25.5761C134.807 25.7681 134.91 25.96 134.944 26.1693C134.995 26.3787 135.011 26.6404 135.011 26.9369V30.4262H133.363V27.3033C133.363 26.9544 133.312 26.7102 133.211 26.5706C133.108 26.431 132.904 26.3612 132.565 26.3612C132.157 26.3612 131.885 26.4485 131.748 26.6054C131.613 26.7625 131.545 27.0591 131.545 27.4952V30.4262H129.896L129.914 30.4436Z" fill="#B5B5B5"/>
<path d="M138.393 26.2739C138.002 26.2739 137.747 26.3611 137.594 26.5181C137.441 26.6751 137.356 26.9543 137.34 27.3207H139.311C139.311 26.9194 139.243 26.6403 139.124 26.5007C139.022 26.3437 138.767 26.2739 138.376 26.2739M138.376 30.5133C137.85 30.5133 137.408 30.461 137.051 30.3388C136.694 30.2167 136.439 30.0423 136.252 29.7806C136.065 29.5363 135.946 29.2572 135.861 28.9432C135.794 28.6291 135.759 28.2453 135.759 27.7743C135.759 26.867 135.963 26.1693 136.354 25.7156C136.745 25.262 137.441 25.0352 138.427 25.0352C138.903 25.0352 139.293 25.0875 139.6 25.1922C139.922 25.2969 140.143 25.4539 140.296 25.6458C140.449 25.8377 140.568 26.082 140.636 26.3611C140.704 26.6403 140.738 26.9543 140.738 27.3032C140.738 27.6522 140.738 28.0185 140.738 28.4198H137.34C137.374 28.7513 137.475 28.978 137.628 29.1002C137.781 29.2223 138.054 29.2921 138.461 29.2921C139.039 29.2921 139.565 29.1874 140.076 28.978L140.687 30.0598C140.041 30.3563 139.277 30.4959 138.359 30.4959" fill="#B5B5B5"/>
<path d="M143.508 30.4438H145.157V25.1226H143.508V30.4438ZM143.508 24.6341H145.157V23.3431H143.508V24.6341Z" fill="#B5B5B5"/>
<path d="M146.244 30.4438V25.21L147.552 25.1227L147.671 25.5414C147.977 25.21 148.607 25.0354 149.541 25.0354C149.898 25.0354 150.203 25.0878 150.458 25.175C150.714 25.2623 150.883 25.4018 151.019 25.5937C151.138 25.7856 151.24 25.9775 151.274 26.1869C151.325 26.3962 151.342 26.6579 151.342 26.9545V30.4438H149.694V27.3209C149.694 26.972 149.642 26.7277 149.541 26.5881C149.439 26.4486 149.235 26.3788 148.895 26.3788C148.488 26.3788 148.215 26.466 148.08 26.6405C147.943 26.815 147.875 27.1116 147.875 27.5128V30.4438H146.228H146.244Z" fill="#B5B5B5"/>
<path d="M155.709 25.1226L154.587 28.6293L153.466 25.1226H151.749L153.636 30.496H155.437L157.357 25.1226H155.709Z" fill="#B5B5B5"/>
<path d="M157.935 30.4438H159.583V25.1226H157.935V30.4438ZM157.935 24.6341H159.583V23.3431H157.935V24.6341Z" fill="#B5B5B5"/>
<path d="M162.66 30.5136C161.623 30.5136 160.824 30.3915 160.229 30.1124L160.858 29.0132C161.402 29.24 161.996 29.3622 162.642 29.3622C163.101 29.3622 163.322 29.2226 163.322 28.9434C163.322 28.7864 163.254 28.6818 163.101 28.5945C162.965 28.5247 162.625 28.4026 162.115 28.263C161.708 28.1409 161.385 28.0187 161.164 27.9141C160.943 27.792 160.773 27.635 160.637 27.4431C160.501 27.2337 160.434 26.972 160.434 26.6579C160.434 25.5763 161.198 25.018 162.744 25.018C163.492 25.018 164.121 25.1052 164.664 25.2971L164.036 26.466C163.611 26.309 163.169 26.2392 162.694 26.2392C162.438 26.2392 162.268 26.2742 162.167 26.3265C162.065 26.3788 162.014 26.4835 162.014 26.6056C162.014 26.7277 162.081 26.8324 162.218 26.9022C162.353 26.972 162.642 27.0767 163.067 27.1988C163.73 27.3907 164.189 27.6001 164.46 27.8268C164.716 28.0537 164.851 28.4201 164.851 28.9085C164.851 29.9553 164.104 30.4787 162.642 30.4787" fill="#B5B5B5"/>
<path d="M165.633 30.4438H167.281V25.1226H165.633V30.4438ZM165.633 24.6341H167.281V23.3431H165.633V24.6341Z" fill="#B5B5B5"/>
<path d="M171.122 29.2747C171.513 29.2747 171.768 29.1701 171.904 28.9433C172.023 28.7164 172.091 28.3501 172.091 27.8267C172.091 27.3033 172.023 26.902 171.904 26.6752C171.785 26.4485 171.513 26.3438 171.122 26.3438C170.681 26.3438 170.374 26.4659 170.239 26.6927C170.102 26.9195 170.017 27.3033 170.017 27.8267C170.017 28.3501 170.086 28.7164 170.221 28.9433C170.358 29.1701 170.663 29.2747 171.122 29.2747ZM168.386 30.3913V23.2209H170.017V25.5238C170.306 25.1923 170.867 25.0179 171.682 25.0179C172.039 25.0179 172.346 25.0702 172.6 25.1748C172.856 25.2796 173.06 25.4017 173.212 25.5587C173.348 25.7157 173.467 25.925 173.552 26.1693C173.637 26.431 173.688 26.6752 173.722 26.9195C173.738 27.1637 173.756 27.4429 173.756 27.7743C173.756 28.1058 173.756 28.385 173.722 28.6293C173.688 28.8735 173.637 29.1177 173.552 29.362C173.467 29.6062 173.348 29.8155 173.195 29.9726C173.042 30.1296 172.838 30.2517 172.566 30.3564C172.295 30.4611 171.989 30.5134 171.632 30.5134C171.088 30.5134 170.714 30.4786 170.493 30.4088C170.272 30.339 170.051 30.2168 169.847 30.0424L169.593 30.4959L168.403 30.3913H168.386Z" fill="#B5B5B5"/>
<path d="M176.866 30.4436C176.781 30.4436 176.577 30.4611 176.272 30.4611C175.677 30.4611 175.251 30.3564 174.98 30.1296C174.708 29.9203 174.589 29.519 174.589 28.9258V23.2209H176.238V28.7339C176.238 28.9433 176.272 29.0654 176.339 29.1351C176.407 29.1875 176.595 29.2224 176.883 29.2224V30.4436H176.866Z" fill="#B5B5B5"/>
<path d="M179.839 26.2739C179.448 26.2739 179.193 26.3611 179.041 26.5181C178.888 26.6751 178.803 26.9543 178.785 27.3207H180.757C180.757 26.9194 180.688 26.6403 180.57 26.5007C180.468 26.3437 180.213 26.2739 179.822 26.2739M179.822 30.5133C179.295 30.5133 178.853 30.461 178.496 30.3388C178.139 30.2167 177.885 30.0423 177.698 29.7806C177.511 29.5363 177.392 29.2572 177.307 28.9432C177.239 28.6291 177.205 28.2453 177.205 27.7743C177.205 26.867 177.409 26.1693 177.8 25.7156C178.191 25.262 178.888 25.0352 179.873 25.0352C180.349 25.0352 180.74 25.0875 181.045 25.1922C181.368 25.2969 181.59 25.4539 181.743 25.6458C181.895 25.8377 182.014 26.082 182.082 26.3611C182.15 26.6403 182.184 26.9543 182.184 27.3032C182.184 27.6522 182.184 28.0185 182.184 28.4198H178.785C178.819 28.7513 178.922 28.978 179.074 29.1002C179.227 29.2223 179.499 29.2921 179.907 29.2921C180.484 29.2921 181.011 29.1874 181.521 28.978L182.133 30.0598C181.487 30.3563 180.722 30.4959 179.805 30.4959" fill="#B5B5B5"/>
</g>
<defs>
<clipPath id="clip0_0_434">
<rect width="183" height="31" fill="white"/>
</clipPath>
</defs>
</svg>
