<svg width="183" height="33" viewBox="0 0 183 33" fill="none" xmlns="http://www.w3.org/2000/svg">
<path d="M30.9287 7.03484H44.6022L44.0172 9.87833H39.045L35.8278 25.1434H32.0986L35.3159 9.87833H30.3438L30.9287 7.03484Z" fill="#B5B5B5"/>
<path d="M47.0168 8.37926H49.9416L48.5524 14.7397H48.6255C49.4298 13.9914 50.5266 13.318 51.8428 13.318C54.0364 13.318 55.4988 14.7397 55.4988 16.9846C55.4988 17.8825 55.2794 18.7805 55.1332 19.5288L53.9632 25.1409H51.0384L52.1352 19.6784C52.2815 18.8553 52.5008 18.107 52.5008 17.2839C52.5008 16.3111 51.8428 15.6377 50.8922 15.6377C48.8448 15.6377 48.1136 17.5832 47.748 19.3043L46.5781 25.1409H43.6533L47.0168 8.37926Z" fill="#B5B5B5"/>
<path d="M61.0552 18.2595C61.6401 16.6881 62.4445 15.5657 64.1993 15.5657C65.4424 15.5657 66.0273 16.2391 66.0273 17.5112C66.0273 17.8105 66.0273 18.035 65.9542 18.2595H61.0552ZM68.5865 20.3547C68.7328 19.5316 68.879 18.6337 68.879 17.8105C68.879 14.8922 67.051 13.3956 64.2725 13.3956C60.5433 13.3956 57.8379 16.8378 57.8379 20.4296C57.8379 23.8717 60.0315 25.4431 63.2488 25.4431C64.4187 25.4431 65.7349 25.1438 66.8317 24.7696L67.2704 22.4499C66.1736 22.9737 65.0037 23.2731 63.8337 23.2731C61.7864 23.2731 60.6896 22.4499 60.6896 20.3547H68.5865Z" fill="#B5B5B5"/>
<path d="M72.4628 15.1891C72.5359 14.6653 72.609 14.2164 72.7552 13.6177H75.5338L75.1682 15.7878H75.2413C75.7532 14.5157 77.2156 13.3184 78.6049 13.3184C78.9705 13.3184 79.3361 13.3184 79.7017 13.4681L79.1167 16.3864C78.8242 16.2367 78.3855 16.2367 78.0199 16.2367C75.9725 16.2367 74.9488 18.1075 74.5832 19.9782L73.5596 25.1414H70.6348L72.4628 15.1891Z" fill="#B5B5B5"/>
<path d="M81.675 14.8922C81.7482 14.4432 81.8213 13.9943 81.8944 13.6201H84.5998L84.3074 15.1915H84.3805C85.1848 13.9943 86.4278 13.3956 87.8171 13.3956C89.1333 13.3956 90.5226 14.2188 90.6688 15.5657H90.7419C91.4731 14.0691 93.1549 13.3956 94.6904 13.3956C96.3722 13.3956 97.8346 14.8174 97.8346 16.5385C97.8346 17.5861 97.5421 18.7085 97.3227 19.6813L96.1528 25.2186H93.228L94.3979 19.6064C94.5442 18.933 94.7635 17.8106 94.7635 17.1371C94.7635 16.314 94.1054 15.7153 93.3742 15.7153C91.3269 15.7153 90.815 18.1099 90.4494 19.6813L89.2795 25.1438H86.3547L87.5246 19.5316C87.6709 18.8582 87.8902 17.7357 87.8902 17.0623C87.8902 16.2391 87.2322 15.6405 86.501 15.6405C84.5267 15.6405 83.9418 18.1099 83.5762 19.6064L82.4062 25.069H79.4814L81.675 14.8922Z" fill="#B5B5B5"/>
<path d="M105.586 23.121C103.904 23.121 103.319 21.9237 103.319 20.4272C103.319 18.332 104.489 15.7129 106.829 15.7129C108.584 15.7129 109.096 16.985 109.096 18.4816C109.022 20.4272 107.853 23.121 105.586 23.121ZM106.902 13.3184C103.1 13.3184 100.248 16.3116 100.248 20.1279C100.248 23.3455 102.149 25.3659 105.366 25.3659C109.388 25.3659 112.093 22.3727 112.093 18.332C112.093 15.264 109.973 13.3184 106.902 13.3184Z" fill="#B5B5B5"/>
<path d="M115.019 13.6186H117.139L117.651 11.2241L120.795 10.1765L120.064 13.6186H122.696L122.257 15.7887H119.625L118.528 20.8022C118.455 21.1015 118.382 21.4757 118.382 21.9247C118.382 22.5981 118.821 23.0471 119.479 23.0471C119.991 23.0471 120.503 22.8974 120.868 22.7478L120.356 25.0675C119.844 25.2171 119.26 25.3668 118.748 25.3668C116.773 25.3668 115.384 24.5437 115.384 22.3736C115.384 21.4757 115.53 20.5777 115.75 19.6798L116.554 15.7887H114.434L115.019 13.6186Z" fill="#B5B5B5"/>
<path d="M126.426 18.2595C127.011 16.6881 127.816 15.5657 129.571 15.5657C130.814 15.5657 131.399 16.2391 131.399 17.5112C131.399 17.8105 131.399 18.035 131.325 18.2595H126.426ZM134.031 20.3547C134.177 19.5316 134.323 18.6337 134.323 17.8105C134.323 14.8922 132.495 13.3956 129.717 13.3956C125.988 13.3956 123.282 16.8378 123.282 20.4296C123.282 23.8717 125.476 25.4431 128.693 25.4431C129.863 25.4431 131.179 25.1438 132.276 24.7696L132.642 22.3751C131.545 22.8989 130.375 23.1982 129.205 23.1982C127.158 23.1982 126.061 22.3751 126.061 20.2799H134.031V20.3547Z" fill="#B5B5B5"/>
<path d="M139.368 8.37926H142.293L140.319 17.8825H140.392L144.487 13.6921H148.289L142.878 18.9301L146.241 25.2158H142.951L140.026 19.0798H139.953L138.71 25.2158H135.858L139.368 8.37926Z" fill="#B5B5B5"/>
<path d="M150.773 15.264C150.919 14.5905 150.992 13.9919 151.065 13.6177H153.917L153.698 14.7402H153.771C154.575 13.9919 155.672 13.3184 156.988 13.3184C159.182 13.3184 160.644 14.7402 160.644 16.985C160.644 17.883 160.425 18.7809 160.279 19.5292L159.109 25.1414H156.184L157.281 19.6789C157.427 18.8558 157.573 18.1075 157.573 17.2844C157.573 16.3116 156.915 15.6381 155.964 15.6381C153.917 15.6381 153.186 17.5837 152.82 19.3047L151.65 25.1414H148.726L150.773 15.264Z" fill="#B5B5B5"/>
<path d="M165.178 13.6176H168.102L165.689 25.1413H162.765L165.178 13.6176ZM166.274 8.6041H169.199L168.614 11.4476H165.689L166.274 8.6041Z" fill="#B5B5B5"/>
<path d="M175.417 17.5859L178.561 13.62H182.071L177.245 19.1573L179.95 25.2185H176.733L174.978 20.8036L171.614 25.2185H168.178L173.296 19.1573L170.883 13.62H173.954L175.417 17.5859Z" fill="#B5B5B5"/>
<path d="M22.8856 6.13563H23.3975L24.2749 7.6322H24.933L23.9824 6.13563C24.4943 5.98597 24.8599 5.76148 24.8599 5.08802C24.8599 4.41456 24.4211 4.11525 23.6168 4.11525H22.3738V7.55738H22.9587L22.8856 6.13563ZM22.8856 5.61182V4.63905H23.5437C23.9093 4.63905 24.2749 4.71388 24.2749 5.08802C24.2749 5.61182 23.9093 5.61182 23.4706 5.61182H22.8856ZM26.4685 5.76148C26.4685 3.89076 25.0792 2.61867 23.4706 2.61867C21.8619 2.61867 20.4727 3.89076 20.4727 5.76148C20.4727 7.55737 21.7157 8.90429 23.4706 8.90429C25.0792 8.90429 26.4685 7.6322 26.4685 5.76148ZM25.8104 5.76148C25.8104 7.25806 24.7867 8.30566 23.4706 8.30566C22.0082 8.30566 21.1307 7.18323 21.1307 5.76148C21.1307 4.2649 22.1544 3.2173 23.4706 3.2173C24.7867 3.2173 25.8104 4.2649 25.8104 5.76148Z" fill="#B5B5B5"/>
<path d="M20.474 22.8236C20.1084 23.0481 19.8159 23.1978 19.5234 23.4223C19.8159 23.1978 20.1084 22.9733 20.474 22.8236C20.474 22.8236 21.4977 22.3747 22.6676 21.4767C21.4246 22.2998 20.474 22.8236 20.474 22.8236Z" fill="#B5B5B5"/>
<path d="M24.2764 19.8304C24.9344 19.0821 25.4463 18.1841 25.6656 17.2113C25.4463 18.1841 24.8613 19.0821 24.2764 19.8304Z" fill="#B5B5B5"/>
<path d="M15.3564 27.3115C15.7952 26.6381 16.3801 25.9646 17.0382 25.366C16.307 25.9646 15.7952 26.6381 15.3564 27.3115Z" fill="#B5B5B5"/>
<path d="M20.4737 9.42844C13.4542 5.46251 13.4542 0 13.4542 0H12.2112C12.2112 0 12.2112 5.46251 5.26477 9.42844C5.26477 9.42844 5.04541 9.50327 4.75293 9.65292H20.9125C20.62 9.50327 20.4737 9.42844 20.4737 9.42844Z" fill="#B5B5B5"/>
<path d="M0 15.0406H25.6651C25.3726 13.7685 24.6414 12.7209 23.764 11.823H1.90112C1.02368 12.7209 0.29248 13.7685 0 15.0406Z" fill="#B5B5B5"/>
<path d="M14.2578 29.1081H11.333C12.1373 30.904 12.1373 32.1761 12.1373 32.1761H13.3804C13.4535 32.1761 13.4535 30.904 14.2578 29.1081Z" fill="#B5B5B5"/>
<path d="M3.07129 21.4019C4.24121 22.2999 5.19177 22.7489 5.19177 22.7489C5.55737 22.9734 5.84985 23.123 6.14233 23.3475H19.4502C19.7427 23.123 20.1083 22.9734 20.4007 22.7489C20.4007 22.7489 21.4244 22.2999 22.5212 21.4019H3.07129Z" fill="#B5B5B5"/>
<path d="M0 17.2113C0.21936 18.1841 0.80432 19.0821 1.38928 19.8304H24.2027C24.8608 19.0821 25.3726 18.1841 25.592 17.2113H0Z" fill="#B5B5B5"/>
<path d="M8.62891 25.2922C9.28699 25.9657 9.87195 26.6391 10.3107 27.2377H15.3559C15.7947 26.5643 16.3796 25.8908 17.0377 25.2922H8.62891Z" fill="#B5B5B5"/>
</svg>
