<svg width="185" height="56" viewBox="0 0 185 56" fill="none" xmlns="http://www.w3.org/2000/svg">
<path d="M2 39.3861L23.2472 16.0827L26.6742 20.195M12.9663 27.7344L23.2472 38.7007L33.5281 27.7344M45.1798 39.3861L34.2135 27.7344H25.3034" stroke="#B5B5B5" stroke-width="4.11236"/>
<rect x="57.0791" y="4.20071" width="127.921" height="48.59" fill="#B5B5B5"/>
<path d="M75.6906 44.2342H67.073L78.2662 11.0596H88.9411L100.134 44.2342H91.5166L83.7251 19.418H83.4659L75.6906 44.2342ZM74.5405 31.1782H92.5533V37.2688H74.5405V31.1782ZM123.005 21.8964C122.822 21.2161 122.552 20.6167 122.196 20.0984C121.839 19.5692 121.402 19.121 120.883 18.7539C120.365 18.3867 119.771 18.1113 119.102 17.9278C118.432 17.7334 117.698 17.6362 116.899 17.6362C115.29 17.6362 113.896 18.0249 112.719 18.8025C111.553 19.58 110.651 20.7139 110.014 22.2042C109.377 23.6836 109.059 25.4817 109.059 27.5983C109.059 29.7257 109.366 31.5399 109.982 33.041C110.597 34.5421 111.488 35.6868 112.655 36.4751C113.821 37.2634 115.236 37.6576 116.899 37.6576C118.367 37.6576 119.609 37.42 120.624 36.9448C121.65 36.4589 122.428 35.7732 122.957 34.8876C123.486 34.0021 123.751 32.96 123.751 31.7613L125.241 31.9395H117.174V26.0918H131.477V30.4816C131.477 33.4514 130.846 35.9945 129.582 38.1111C128.329 40.2278 126.602 41.853 124.399 42.9869C122.206 44.1208 119.685 44.6878 116.834 44.6878C113.67 44.6878 110.889 44.002 108.492 42.6305C106.094 41.2591 104.226 39.3044 102.887 36.7667C101.548 34.2181 100.878 31.1944 100.878 27.6955C100.878 24.9741 101.283 22.5605 102.093 20.4547C102.903 18.3381 104.032 16.5455 105.479 15.0768C106.936 13.6081 108.621 12.4958 110.533 11.7399C112.455 10.984 114.523 10.606 116.737 10.606C118.659 10.606 120.446 10.8814 122.098 11.4321C123.761 11.9829 125.23 12.7604 126.504 13.7647C127.789 14.769 128.832 15.9623 129.631 17.3446C130.43 18.7269 130.927 20.2441 131.121 21.8964H123.005ZM135.291 11.0596H145.221L153.644 31.5993H154.033L162.456 11.0596H172.386V44.2342H164.578V23.8564H164.303L156.333 44.0236H151.344L143.374 23.743H143.099V44.2342H135.291V11.0596Z" fill="white"/>
</svg>
